<svg width="1920" height="1080" viewBox="0 0 1920 1080" fill="none" xmlns="http://www.w3.org/2000/svg">
<rect width="1920" height="1080" fill="white"/>
<rect width="1920" height="1080" fill="url(#paint0_linear_6_115)"/>
<rect x="26" width="263" height="1004" fill="url(#paint1_linear_6_115)"/>
<g filter="url(#filter0_d_6_115)">
<path d="M280.912 870.757C508.54 976.414 877.614 976.414 1105.27 870.757C1332.92 765.1 1332.9 593.808 1105.27 488.15C877.641 382.493 508.54 382.469 280.885 488.15C53.2295 593.832 53.2567 765.1 280.912 870.757Z" fill="#FAFAFA"/>
</g>
<path d="M883.564 890.165C929.585 890.165 966.893 874.364 966.893 854.873C966.893 835.382 929.585 819.582 883.564 819.582C837.542 819.582 800.234 835.382 800.234 854.873C800.234 874.364 837.542 890.165 883.564 890.165Z" fill="#F0F0F0"/>
<path d="M1245.5 437H1561.3C1567.06 437 1569.95 437 1572.32 437.59C1579.51 439.376 1585.12 444.989 1586.91 452.178C1587.5 454.553 1587.5 457.435 1587.5 463.2V512H1407.64H1245.5V437Z" fill="#D0BADA"/>
<path d="M231.952 244.585V366.006C231.952 369.989 235.104 371.63 239.016 369.626L556.304 206.856C558.358 205.664 560.067 204.059 561.294 202.172C562.521 200.286 563.232 198.169 563.369 195.993V74.4761C563.369 70.4932 560.19 68.8517 556.304 70.8552L239.016 233.626C236.944 234.823 235.223 236.442 233.994 238.348C232.766 240.253 232.066 242.391 231.952 244.585Z" fill="#F0F0F0"/>
<path d="M254.041 242.678L349.135 193.917C353.509 191.672 357.014 193.483 357.014 197.948V282.846C356.865 285.267 356.074 287.623 354.704 289.721C353.335 291.818 351.427 293.598 349.135 294.916L254.041 343.701C249.694 345.922 246.162 344.111 246.162 339.646V254.796C246.309 252.368 247.099 250.005 248.468 247.899C249.838 245.793 251.747 244.005 254.041 242.678Z" fill="#FAFAFA"/>
<path d="M331.04 236.281L302.756 288.374L288.356 280.987C286.974 280.315 285.352 280.146 283.831 280.515C282.311 280.884 281.011 281.763 280.206 282.967L246.162 335.131V339.694C246.162 344.16 249.694 345.97 254.041 343.749L349.135 294.964C351.422 293.642 353.327 291.861 354.696 289.764C356.064 287.668 356.859 285.314 357.014 282.894V253.034L337.996 235.316C337.571 234.788 336.989 234.376 336.316 234.125C335.643 233.873 334.904 233.793 334.183 233.894C333.461 233.994 332.785 234.27 332.23 234.692C331.676 235.113 331.263 235.664 331.04 236.281Z" fill="#BA68C8"/>
<path d="M260.453 273.745C266.329 270.34 271.219 265.753 274.726 260.355C278.233 254.958 280.26 248.902 280.64 242.678C280.64 237.44 278.738 233.65 275.614 231.622L254.041 242.678C251.754 244 249.849 245.781 248.48 247.878C247.112 249.974 246.317 252.328 246.162 254.748V274.952C249.884 276.883 254.883 276.594 260.453 273.745Z" fill="#BA68C8"/>
<path d="M392.498 179.602L535.384 106.292C538.644 104.626 541.28 105.809 541.28 108.947C541.136 110.705 540.527 112.409 539.503 113.919C538.478 115.429 537.067 116.703 535.384 117.637L392.498 190.924C389.238 192.589 386.602 191.407 386.602 188.268C386.75 186.514 387.361 184.815 388.385 183.31C389.409 181.804 390.818 180.534 392.498 179.602Z" fill="#FAFAFA"/>
<path d="M392.498 204.683L535.384 131.372C538.644 129.707 541.28 130.889 541.28 134.028C541.136 135.786 540.527 137.49 539.503 139C538.478 140.51 537.067 141.784 535.384 142.718L392.498 216.004C389.238 217.67 386.602 216.487 386.602 213.373C386.746 211.615 387.355 209.911 388.379 208.401C389.404 206.891 390.815 205.617 392.498 204.683Z" fill="#FAFAFA"/>
<path d="M392.498 229.764L535.384 156.477C538.644 154.811 541.28 155.994 541.28 159.108C541.136 160.867 540.527 162.57 539.503 164.08C538.478 165.591 537.067 166.864 535.384 167.798L392.498 241.085C389.238 242.775 386.602 241.592 386.602 238.454C386.746 236.695 387.355 234.992 388.379 233.482C389.404 231.972 390.815 230.698 392.498 229.764Z" fill="#FAFAFA"/>
<path d="M392.498 254.844L535.384 181.558C538.644 179.892 541.28 181.075 541.28 184.213C541.132 185.967 540.521 187.666 539.497 189.172C538.472 190.677 537.063 191.947 535.384 192.879L392.498 266.311C389.238 267.976 386.602 266.793 386.602 263.655C386.725 261.876 387.324 260.148 388.349 258.615C389.375 257.083 390.797 255.79 392.498 254.844Z" fill="#FAFAFA"/>
<path d="M165.658 626.613V448.441C165.788 446.264 166.496 444.145 167.724 442.257C168.952 440.369 170.664 438.766 172.722 437.578L412.685 314.468C416.57 312.465 419.749 314.082 419.749 318.089V496.261C419.612 498.437 418.902 500.553 417.675 502.44C416.447 504.327 414.738 505.931 412.685 507.123L172.722 630.234C168.81 632.237 165.658 630.62 165.658 626.613Z" fill="#F0F0F0"/>
<path d="M165.658 617.705V626.613C165.658 630.62 168.81 632.237 172.722 630.234L412.685 507.124C414.738 505.931 416.447 504.327 417.675 502.44C418.902 500.553 419.612 498.437 419.749 496.261V487.329L165.658 617.705Z" fill="#BA68C8"/>
<path d="M281.754 456.117L306.207 454.983C309.196 454.838 310.011 456.335 308.027 458.362L279.934 486.75C277.95 488.754 276.347 488.198 276.347 485.543V461.211C276.358 459.912 276.921 458.665 277.924 457.72C278.927 456.775 280.296 456.203 281.754 456.117Z" fill="#BA68C8"/>
<path d="M275.451 502.32C272.52 502.354 269.633 501.696 267.082 500.413C261.051 497.299 257.736 490.757 257.736 482.212C257.736 464.783 271.565 443.589 288.574 434.778C296.969 430.457 304.876 429.806 310.962 432.895C317.048 435.985 320.335 442.551 320.335 451.072C320.335 468.525 306.479 489.695 289.498 498.506C285.271 500.846 280.428 502.161 275.451 502.32ZM302.62 432.63C297.977 432.793 293.462 434.033 289.525 436.227C273.033 444.675 259.638 465.314 259.638 482.212C259.638 490.226 262.627 496.188 268.061 498.964C273.495 501.74 280.776 501.089 288.574 497.082C305.066 488.609 318.46 468.115 318.46 451.072C318.46 443.058 315.472 437.12 310.038 434.32C307.765 433.19 305.198 432.607 302.593 432.63H302.62Z" fill="#BA68C8"/>
<path d="M178.89 282.87L164.028 275.29C156.936 271.066 147.074 271.235 136.179 276.835C114.443 287.939 97 316.11 97 339.766V345.149C97 368.806 132.81 394.49 132.81 394.49L147.427 401.852C147.427 401.852 138.651 392.945 139.656 391.11C149.356 373.634 175.303 324.245 175.303 304.933V299.55C175.358 295.654 174.8 291.771 173.646 288.012L175.303 288.857L178.89 282.87ZM136.152 337.111C125.284 342.663 116.562 338.149 116.562 327.069C122.377 326.248 137.021 304.04 136.152 296.919C147.019 291.367 155.714 295.881 155.741 306.961C155.373 313.001 153.407 318.878 150.004 324.117C146.6 329.355 141.854 333.807 136.152 337.111Z" fill="#BA68C8"/>
<g opacity="0.2">
<path d="M178.89 282.87L164.028 275.29C156.936 271.066 147.074 271.235 136.179 276.835C114.443 287.939 97 316.11 97 339.766V345.149C97 368.806 132.81 394.49 132.81 394.49L147.427 401.852C147.427 401.852 138.651 392.945 139.656 391.11C149.356 373.634 175.303 324.245 175.303 304.933V299.55C175.358 295.654 174.8 291.771 173.646 288.012L175.303 288.857L178.89 282.87ZM136.152 337.111C125.284 342.663 116.562 338.149 116.562 327.069C122.377 326.248 137.021 304.04 136.152 296.919C147.019 291.367 155.714 295.881 155.741 306.961C155.373 313.001 153.407 318.878 150.004 324.117C146.6 329.355 141.854 333.807 136.152 337.111Z" fill="black"/>
</g>
<path d="M178.89 282.87C178.727 282.768 178.554 282.679 178.373 282.605C171.391 279.129 162.072 279.611 151.801 284.874C136.315 292.84 122.92 309.52 116.481 327.069C113.991 333.746 112.671 340.723 112.568 347.756V353.212C112.568 371.437 135.798 392.583 146.476 401.345C146.707 401.529 146.952 401.699 147.21 401.852C147.837 402.194 148.539 402.415 149.269 402.501C149.999 402.587 150.741 402.537 151.447 402.352C152.154 402.168 152.809 401.855 153.371 401.432C153.932 401.009 154.388 400.486 154.709 399.897C163.946 383 190.817 332.597 190.817 312.996V307.613C190.98 295.447 186.334 286.853 178.89 282.87ZM132.565 338.583C132.34 337.436 132.23 336.272 132.239 335.107C132.598 329.065 134.557 323.183 137.956 317.94C141.355 312.697 146.099 308.241 151.801 304.933C152.941 304.35 154.131 303.85 155.361 303.437C164.49 300.492 171.391 305.151 171.391 314.975C171.025 321.012 169.06 326.887 165.656 332.122C162.252 337.357 157.505 341.804 151.801 345.101C142.21 350.074 134.223 347.08 132.565 338.583Z" fill="#BA68C8"/>
<path d="M171.391 314.999C171.025 321.036 169.06 326.911 165.656 332.146C162.252 337.381 157.505 341.828 151.801 345.125C142.21 349.953 134.223 347.081 132.565 338.584C133.81 338.194 135.011 337.701 136.152 337.111C141.851 333.806 146.592 329.353 149.991 324.115C153.39 318.876 155.351 312.999 155.714 306.961C155.726 305.787 155.608 304.614 155.361 303.461C164.49 300.516 171.391 305.175 171.391 314.999Z" fill="#BA68C8"/>
<g opacity="0.2">
<path d="M171.391 314.999C171.025 321.036 169.06 326.911 165.656 332.146C162.252 337.381 157.505 341.828 151.801 345.125C142.21 349.953 134.223 347.081 132.565 338.584C133.81 338.194 135.011 337.701 136.152 337.111C141.851 333.806 146.592 329.353 149.991 324.115C153.39 318.876 155.351 312.999 155.714 306.961C155.726 305.787 155.608 304.614 155.361 303.461C164.49 300.516 171.391 305.175 171.391 314.999Z" fill="black"/>
</g>
<path d="M456.863 614.712C456.863 614.712 466.671 559.192 444.881 511.445C423.091 463.697 393.721 460.752 378.506 467.535C363.291 474.318 373.072 500.799 386.657 518.59C404.752 541.932 434.638 592.19 433.66 637.331L456.863 614.712Z" fill="#BA68C8"/>
<path opacity="0.2" d="M456.863 614.712C456.863 614.712 466.671 559.192 444.881 511.445C423.091 463.697 393.721 460.752 378.506 467.535C363.291 474.318 373.072 500.799 386.657 518.59C404.752 541.932 434.638 592.19 433.66 637.331L456.863 614.712Z" fill="black"/>
<path d="M447.082 618.237C446.838 618.23 446.598 618.181 446.376 618.091C446.154 618.001 445.955 617.872 445.79 617.712C445.626 617.552 445.499 617.364 445.417 617.16C445.336 616.956 445.301 616.739 445.316 616.523C448.902 540.508 406.164 483.757 387.716 472.701C387.515 472.581 387.342 472.426 387.207 472.246C387.073 472.066 386.98 471.865 386.933 471.653C386.886 471.441 386.887 471.223 386.935 471.012C386.983 470.8 387.078 470.599 387.214 470.42C387.349 470.241 387.523 470.087 387.725 469.968C387.928 469.848 388.155 469.766 388.393 469.724C388.632 469.683 388.877 469.683 389.115 469.726C389.353 469.769 389.579 469.853 389.781 469.973C411.517 482.864 452.597 540.894 448.984 616.668C448.977 616.882 448.922 617.093 448.822 617.289C448.723 617.484 448.58 617.66 448.403 617.806C448.226 617.952 448.018 618.065 447.791 618.139C447.564 618.213 447.323 618.246 447.082 618.237Z" fill="white"/>
<path d="M453.005 680.636C449.283 672.332 439.665 663.063 414.967 653.166C390.27 643.269 371.686 630.065 368.263 620.505C367.232 617.865 367.098 615.014 367.875 612.306C368.653 609.598 370.309 607.153 372.637 605.274C372.637 605.274 349.352 602.86 346.418 590.187C342.75 574.206 363.1 573.168 363.1 573.168C363.1 573.168 336.393 539.76 329.301 524.89C322.21 510.02 330.388 509.127 347.614 514.8C364.839 520.472 397.66 549.029 402.741 557.743C402.741 557.743 411.626 548.088 421.189 554.436C430.753 560.785 431.215 579.783 425.564 586.638C429.375 586.007 433.31 586.372 436.893 587.687C440.475 589.002 443.552 591.212 445.751 594.049C455.477 605.37 458.684 633.685 458.684 633.685L453.005 680.636Z" fill="#BA68C8"/>
<path d="M454.744 672.912C454.331 672.907 453.932 672.782 453.607 672.555C453.283 672.328 453.052 672.012 452.951 671.657C439.746 622.775 377.066 544.757 338.131 519.942C337.933 519.816 337.765 519.658 337.636 519.475C337.507 519.292 337.42 519.088 337.379 518.875C337.339 518.662 337.346 518.444 337.401 518.234C337.455 518.023 337.556 517.824 337.697 517.648C337.838 517.472 338.016 517.323 338.222 517.208C338.428 517.094 338.658 517.016 338.897 516.98C339.137 516.945 339.382 516.951 339.619 516.999C339.856 517.048 340.08 517.137 340.278 517.262C379.701 542.391 443.17 621.399 456.564 670.884C456.671 671.31 456.585 671.755 456.326 672.125C456.067 672.495 455.655 672.76 455.179 672.864L454.744 672.912Z" fill="white"/>
<path d="M946.543 180.689C946.22 180.685 945.903 180.611 945.62 180.471L937.985 176.537C937.774 176.429 937.59 176.285 937.442 176.114C937.294 175.943 937.185 175.748 937.122 175.539C937.059 175.331 937.043 175.113 937.074 174.899C937.106 174.685 937.184 174.479 937.306 174.292C937.427 174.105 937.588 173.941 937.781 173.809C937.974 173.678 938.194 173.581 938.428 173.525C938.663 173.469 938.908 173.455 939.149 173.483C939.389 173.511 939.622 173.581 939.832 173.688L947.467 177.623C947.678 177.731 947.863 177.874 948.011 178.045C948.159 178.216 948.268 178.412 948.331 178.62C948.394 178.829 948.41 179.046 948.379 179.26C948.347 179.475 948.268 179.681 948.146 179.868C947.984 180.118 947.75 180.325 947.469 180.469C947.187 180.614 946.868 180.689 946.543 180.689Z" fill="white"/>
<path d="M453.005 323.81V682.954C453.005 686.961 456.157 688.578 460.042 686.574L931.546 444.724C933.599 443.531 935.308 441.927 936.535 440.04C937.762 438.153 938.473 436.037 938.61 433.861V74.7175C938.61 70.7104 935.431 69.093 931.546 71.0966L460.042 312.948C457.991 314.14 456.285 315.744 455.062 317.632C453.839 319.519 453.135 321.636 453.005 323.81Z" fill="#455A64"/>
<path d="M508.187 390.145C508.187 402.673 518.701 407.404 531.716 400.742L905.49 209.004V163.719L531.716 355.433C518.701 362.119 508.187 377.641 508.187 390.145Z" fill="#F5F5F5"/>
<path d="M937.278 147.473C950.266 140.811 960.807 145.542 960.807 158.046C960.807 170.55 950.266 186.096 937.278 192.758L905.626 209.004V163.719L937.278 147.473Z" fill="#BA68C8"/>
<path d="M925.867 185.637C924.514 185.654 923.181 185.346 922.009 184.744C920.566 183.886 919.41 182.697 918.664 181.303C917.918 179.91 917.609 178.363 917.771 176.826C917.966 173.048 919.178 169.367 921.306 166.091C923.433 162.814 926.413 160.039 929.997 157.998C931.365 157.006 933.041 156.408 934.801 156.284C936.561 156.159 938.322 156.513 939.85 157.299C941.377 158.085 942.6 159.266 943.354 160.685C944.108 162.103 944.358 163.692 944.071 165.24C943.869 169.016 942.654 172.696 940.527 175.971C938.4 179.246 935.423 182.022 931.844 184.068C930.041 185.047 927.98 185.588 925.867 185.637ZM935.947 159.688C934.49 159.751 933.076 160.151 931.844 160.846C928.844 162.617 926.345 164.982 924.544 167.754C922.744 170.527 921.69 173.632 921.466 176.826C921.185 177.788 921.268 178.804 921.7 179.72C922.133 180.636 922.891 181.4 923.859 181.896C924.828 182.392 925.953 182.592 927.061 182.465C928.17 182.339 929.201 181.893 929.997 181.196C933.001 179.427 935.501 177.063 937.302 174.29C939.103 171.517 940.156 168.411 940.376 165.215C940.515 164.258 940.367 163.285 939.947 162.395C939.528 161.505 938.851 160.729 937.985 160.146C937.365 159.831 936.661 159.672 935.947 159.688Z" fill="white"/>
<path d="M942.712 246.589L581.355 431.833C579.294 433.018 577.579 434.621 576.351 436.509C575.123 438.398 574.417 440.518 574.291 442.696V541.498C574.291 545.505 577.442 547.122 581.355 545.119L942.712 359.802C944.77 358.614 946.483 357.011 947.71 355.123C948.938 353.235 949.646 351.116 949.777 348.939V250.21C949.641 246.203 946.489 244.585 942.712 246.589Z" fill="#BA68C8"/>
<path opacity="0.2" d="M942.712 246.589L581.355 431.833C579.294 433.018 577.579 434.621 576.351 436.509C575.123 438.398 574.417 440.518 574.291 442.696V541.498C574.291 545.505 577.442 547.122 581.355 545.119L942.712 359.802C944.77 358.614 946.483 357.011 947.71 355.123C948.938 353.235 949.646 351.116 949.777 348.939V250.21C949.641 246.203 946.489 244.585 942.712 246.589Z" fill="white"/>
<path d="M712.721 380.924L778.2 347.322C781.46 345.656 784.095 346.839 784.095 349.977C783.948 351.732 783.337 353.43 782.313 354.936C781.288 356.442 779.879 357.712 778.2 358.643L712.721 392.245C709.46 393.911 706.825 392.728 706.825 389.59C706.972 387.835 707.583 386.137 708.607 384.631C709.632 383.125 711.041 381.855 712.721 380.924Z" fill="white"/>
<path d="M706.825 412.232C706.825 415.37 709.542 416.553 712.721 414.887L910.652 313.358C912.329 312.42 913.734 311.144 914.753 309.635C915.773 308.125 916.378 306.424 916.521 304.668C916.521 301.554 913.804 300.371 910.652 302.037L712.721 403.566C711.041 404.498 709.632 405.768 708.607 407.273C707.583 408.779 706.972 410.478 706.825 412.232Z" fill="white"/>
<path d="M706.825 434.875C706.825 438.013 709.542 439.196 712.721 437.53L910.652 336C912.329 335.062 913.734 333.787 914.753 332.277C915.773 330.768 916.378 329.066 916.521 327.31C916.521 324.196 913.804 323.014 910.652 324.679L712.721 426.209C711.041 427.14 709.632 428.41 708.607 429.916C707.583 431.422 706.972 433.12 706.825 434.875Z" fill="white"/>
<path d="M706.825 457.517C706.825 460.655 709.542 461.838 712.721 460.172L910.652 358.643C912.329 357.705 913.734 356.429 914.753 354.92C915.773 353.41 916.378 351.709 916.521 349.953C916.521 346.839 913.804 345.656 910.652 347.322L712.721 448.851C711.041 449.783 709.632 451.053 708.607 452.558C707.583 454.064 706.972 455.763 706.825 457.517Z" fill="white"/>
<path d="M592.495 437.482L677.699 393.766C681.611 391.786 684.763 393.403 684.763 397.386V473.497C684.63 475.674 683.921 477.792 682.694 479.68C681.466 481.567 679.755 483.171 677.699 484.36L592.495 528.052C588.609 530.056 585.43 528.438 585.43 524.455V448.344C585.561 446.167 586.269 444.048 587.497 442.161C588.724 440.273 590.437 438.67 592.495 437.482Z" fill="white"/>
<path d="M661.506 431.761L636.156 478.446L623.251 471.832C622.004 471.193 620.522 471.019 619.132 471.35C617.741 471.68 616.555 472.487 615.833 473.594L585.43 520.352V524.431C585.43 528.438 588.609 530.056 592.495 528.052L677.699 484.36C679.757 483.172 681.469 481.569 682.697 479.681C683.924 477.793 684.632 475.675 684.763 473.497V446.775L667.619 430.892C667.23 430.448 666.715 430.105 666.126 429.899C665.538 429.693 664.898 429.631 664.273 429.72C663.648 429.809 663.062 430.045 662.575 430.404C662.088 430.763 661.719 431.231 661.506 431.761Z" fill="#BA68C8"/>
<path d="M598.227 465.339C603.495 462.285 607.879 458.172 611.023 453.332C614.166 448.492 615.982 443.062 616.322 437.482C616.503 435.629 616.189 433.765 615.405 432.041C614.621 430.317 613.39 428.782 611.812 427.561L592.495 437.482C590.437 438.67 588.724 440.273 587.497 442.161C586.269 444.049 585.561 446.167 585.43 448.345V466.449C588.718 468.139 593.228 467.897 598.227 465.339Z" fill="#BA68C8"/>
<path d="M942.712 393.766L581.355 579.01C579.297 580.198 577.585 581.801 576.357 583.689C575.129 585.577 574.421 587.696 574.291 589.873V688.747C574.291 692.73 577.442 694.347 581.355 692.368L942.712 507.003C944.77 505.815 946.483 504.212 947.71 502.324C948.938 500.436 949.646 498.317 949.777 496.14V397.387C949.641 393.404 946.489 391.834 942.712 393.766Z" fill="#BA68C8"/>
<path opacity="0.2" d="M942.712 393.766L581.355 579.01C579.297 580.198 577.585 581.801 576.357 583.689C575.129 585.577 574.421 587.696 574.291 589.873V688.747C574.291 692.73 577.442 694.347 581.355 692.368L942.712 507.003C944.77 505.815 946.483 504.212 947.71 502.324C948.938 500.436 949.646 498.317 949.777 496.14V397.387C949.641 393.404 946.489 391.834 942.712 393.766Z" fill="white"/>
<path d="M712.721 528.1L778.2 494.523C781.46 492.857 784.095 494.04 784.095 497.154C783.952 498.913 783.343 500.616 782.319 502.126C781.294 503.636 779.883 504.91 778.2 505.844L712.721 539.422C709.46 541.087 706.825 539.904 706.825 536.791C706.968 535.032 707.577 533.328 708.601 531.818C709.626 530.308 711.037 529.034 712.721 528.1Z" fill="white"/>
<path d="M706.825 559.433C706.825 562.547 709.542 563.73 712.721 562.064L910.652 460.535C912.325 459.599 913.728 458.327 914.747 456.822C915.766 455.317 916.374 453.62 916.521 451.869C916.521 448.731 913.804 447.548 910.652 449.213L712.721 550.743C711.037 551.677 709.626 552.951 708.601 554.461C707.577 555.971 706.968 557.674 706.825 559.433Z" fill="white"/>
<path d="M706.825 582.076C706.825 585.19 709.542 586.373 712.721 584.707L910.652 483.177C912.325 482.242 913.728 480.97 914.747 479.465C915.766 477.96 916.374 476.263 916.521 474.511C916.521 471.373 913.804 470.19 910.652 471.856L712.721 573.386C711.037 574.32 709.626 575.593 708.601 577.104C707.577 578.614 706.968 580.317 706.825 582.076Z" fill="white"/>
<path d="M706.825 604.718C706.825 607.832 709.542 609.015 712.721 607.35L910.652 505.82C912.325 504.884 913.728 503.613 914.747 502.108C915.766 500.602 916.374 498.906 916.521 497.154C916.521 494.016 913.804 492.833 910.652 494.499L712.721 596.028C711.037 596.962 709.626 598.236 708.601 599.746C707.577 601.256 706.968 602.96 706.825 604.718Z" fill="white"/>
<path d="M592.495 584.683L677.699 540.967C681.611 538.963 684.763 540.58 684.763 544.587V620.674C684.637 622.852 683.931 624.973 682.703 626.861C681.474 628.749 679.76 630.352 677.699 631.537L592.495 675.253C588.609 677.257 585.43 675.639 585.43 671.632V595.545C585.561 593.368 586.269 591.249 587.497 589.362C588.724 587.474 590.437 585.871 592.495 584.683Z" fill="white"/>
<path d="M661.506 578.962L636.156 625.647L623.251 619.009C622.632 618.693 621.949 618.489 621.241 618.408C620.533 618.327 619.814 618.371 619.126 618.537C618.437 618.703 617.792 618.988 617.227 619.375C616.662 619.763 616.188 620.245 615.833 620.795L585.43 667.553V671.632C585.43 675.639 588.609 677.257 592.495 675.253L677.699 631.537C679.756 630.354 681.469 628.756 682.696 626.872C683.924 624.988 684.632 622.872 684.763 620.698V593.952L667.619 578.093C667.235 577.642 666.721 577.292 666.131 577.081C665.54 576.87 664.897 576.805 664.268 576.895C663.64 576.984 663.051 577.224 662.564 577.588C662.077 577.952 661.712 578.427 661.506 578.962Z" fill="#BA68C8"/>
<path d="M598.227 612.515C603.495 609.467 607.878 605.358 611.022 600.522C614.166 595.686 615.982 590.26 616.322 584.683C616.503 582.83 616.189 580.966 615.405 579.242C614.621 577.518 613.39 575.983 611.812 574.762L592.495 584.683C590.437 585.871 588.724 587.474 587.497 589.362C586.269 591.249 585.561 593.368 585.43 595.546V613.65C588.718 615.316 593.228 615.074 598.227 612.515Z" fill="#BA68C8"/>
<path d="M938.61 90.0942V74.7175C938.61 70.7104 935.431 69.093 931.546 71.0966L460.069 312.948C458.011 314.135 456.299 315.739 455.071 317.626C453.844 319.514 453.136 321.633 453.005 323.81V339.211L938.61 90.0942Z" fill="#BA68C8"/>
<path d="M880.765 103.033C879.246 103.919 877.982 105.111 877.076 106.512C876.169 107.912 875.646 109.482 875.549 111.095C875.549 114.064 877.885 115.271 880.765 113.775C882.294 112.9 883.567 111.715 884.479 110.318C885.391 108.92 885.915 107.35 886.009 105.736C886.009 102.767 883.673 101.56 880.765 103.033Z" fill="#F5F5F5"/>
<path d="M901.55 92.5082C900.025 93.3922 898.756 94.5827 897.845 95.9833C896.934 97.384 896.407 98.9555 896.306 100.571C896.306 103.54 898.67 104.723 901.55 103.25C903.08 102.37 904.352 101.181 905.264 99.7794C906.175 98.3778 906.7 96.8042 906.794 95.1876C906.794 92.0978 904.457 90.915 901.55 92.5082Z" fill="#F5F5F5"/>
<path d="M922.335 81.7419C920.806 82.6164 919.533 83.8014 918.622 85.199C917.71 86.5967 917.185 88.167 917.091 89.7803C917.091 92.7494 919.428 93.9564 922.335 92.4839C923.855 91.5972 925.119 90.4055 926.025 89.005C926.931 87.6046 927.454 86.0345 927.552 84.4214C927.552 81.4523 925.215 80.2453 922.335 81.7419Z" fill="#F5F5F5"/>
<path d="M946.136 838.941C946.958 840.797 947.523 842.734 947.82 844.711C948.586 846.755 948.763 848.938 948.337 851.059C946.506 853.768 943.597 855.767 940.186 856.66C937.758 857.156 935.241 857.198 932.795 856.782C930.348 856.367 928.026 855.503 925.976 854.246C921.004 851.614 917.282 848.404 910.217 846.642C905.179 845.677 900.434 843.759 896.307 841.017C892.394 838.241 887.177 830.517 894.649 828.73C902.121 826.944 918.395 833.244 933.203 833.824L946.136 838.941Z" fill="#263238"/>
<path d="M945.429 830.251C945.429 830.251 946.299 839.472 946.299 840.607C946.299 843.721 933.366 847.849 930.975 840.607L928.91 830.806L945.429 830.251Z" fill="#F28F8F"/>
<path d="M929.562 627.94C934.009 633.75 938.082 639.778 941.761 645.997C941.761 645.997 943.038 659.418 943.038 668.349C943.038 684.764 940.186 697.437 937.604 729.784C941.807 736.147 944.212 743.319 944.614 750.688C945.701 765.341 945.728 765.172 945.837 832.762C943.362 833.948 940.644 834.683 937.845 834.924C935.046 835.164 932.22 834.905 929.535 834.162L905.082 739.512L902.365 702.362L894.703 656.183L929.562 627.94Z" fill="#37474F"/>
<path d="M871.691 855.863C872.56 856.66 872.261 858.277 872.669 860.932C873.12 862.974 873.239 865.064 873.022 867.136C871.596 870.006 869.02 872.303 865.795 873.581C863.45 874.332 860.956 874.645 858.468 874.5C855.981 874.354 853.554 873.754 851.341 872.736C846.07 870.66 841.913 867.908 834.658 866.919C829.525 866.526 824.547 865.151 820.068 862.888C815.803 860.474 809.526 853.473 816.699 850.818C823.872 848.163 841.858 852.918 856.612 851.856L871.691 855.863Z" fill="#263238"/>
<path d="M875.087 844.276C875.087 844.276 872.37 854.801 871.636 857.142C870.006 862.767 855.96 863.056 855.96 856.563L856.91 841.597L875.087 844.276Z" fill="#F28F8F"/>
<path d="M897.855 630.813C904.892 643.1 911.685 653.938 911.902 667.022C912.418 694.709 899.485 725.197 894.731 745.209C896.147 752.451 896.549 759.821 895.926 767.151C894.975 775.528 873.484 851.639 873.484 851.639C873.484 851.639 861.529 853.859 856.449 849.056L862.48 702.506L864.11 659.949L897.855 630.813Z" fill="#37474F"/>
<path d="M888.183 555.764L892.611 577.562L914.782 576.113L910.136 551.419L888.183 555.764Z" fill="#FFA8A7"/>
<path d="M938.175 574.52C935.974 568.606 927.525 562.161 919.156 563.561C906.587 565.459 894.198 568.203 882.097 571.768C874.353 574.182 867.289 580.193 866.637 602.835L864.219 659.804C867.567 662.449 871.584 664.337 875.929 665.308C887.694 668.18 895.464 669.894 913.342 666.418C936.626 661.904 942.169 649.376 942.169 649.376C942.169 649.376 941.272 619.226 940.566 602.835C939.995 588.907 939.669 578.6 938.175 574.52Z" fill="#455A64"/>
<path d="M878.728 527.932L765.837 500.727C755.622 499.158 751.356 521.317 761.572 522.862L877.505 533.266L878.728 527.932Z" fill="#263238"/>
<path d="M846.26 573.893L823.193 574.52C823.193 574.52 826.67 544.032 828.817 540.025C830.963 536.018 836.098 535.197 841.206 533.918C846.314 532.639 846.287 530.466 846.287 530.466L841.695 530.056C837.674 529.694 836.071 525.228 837.81 522.211C838.652 520.81 840.011 518.59 842.456 519.193L848.542 520.666C848.636 518.28 847.967 515.92 846.613 513.858C844.575 511.855 843.217 512.482 839.141 511.227C836.126 510.286 829.958 508.62 824.986 510.431C820.014 512.241 816.237 520.545 814.96 526.411C813.668 533.194 811.574 539.837 808.711 546.229C804.283 557.092 797.843 579.396 797.164 588.328C796.865 592.456 797.3 594.918 802.462 596.004C807.625 597.09 845.608 597.163 845.608 597.163L846.26 573.893Z" fill="#FFA8A7"/>
<path d="M871.772 529.959C871.772 529.959 866.338 537.008 867.099 537.78C868.326 538.507 869.687 539.038 871.12 539.349L871.772 529.959Z" fill="#FFA8A7"/>
<path d="M888.156 507.703C882.993 510.117 874.082 514.293 871.609 531.094C869.082 548.329 872.424 553.881 875.033 556.174C876.826 557.719 886.444 557.816 891.334 556.512C897.366 554.919 910.978 550.309 917.2 541.449C924.509 531.021 926.139 517.069 917.906 511.517C913.717 508.694 908.79 506.862 903.586 506.195C898.382 505.528 893.072 506.047 888.156 507.703Z" fill="#FFA8A7"/>
<path d="M903.343 715.711L915.108 686.164C924.227 683.292 932.398 678.447 938.881 672.067C938.881 672.067 936.164 680.491 917.58 689.133L904.675 717.086V732.632L903.343 715.711Z" fill="#263238"/>
<path d="M870.55 513.376C872.234 517.503 875.087 527.642 886.987 531.866C886.987 531.866 888.699 525.421 894.785 526.097C900.871 526.773 901.931 533.701 898.181 537.998C894.432 542.294 890.791 540.749 890.791 540.749C890.791 540.749 889.976 549.995 896.931 554.195C899.521 555.552 902.429 556.356 905.428 556.544C908.426 556.733 911.433 556.3 914.211 555.281C918.205 553.664 923.884 545.143 927.199 538.142C934.208 523.369 935.214 511.589 924.482 507.775C923.15 501.065 919.754 498.53 912.907 497.275C898.181 494.595 887.042 503.189 874.679 501.668C868.349 500.871 868.593 508.644 870.55 513.376Z" fill="#263238"/>
<path d="M924.835 510.117L931.79 506.279C931.184 505.526 930.278 505.006 929.257 504.825C928.235 504.644 927.174 504.815 926.289 505.303C925.404 505.791 924.761 506.561 924.491 507.455C924.221 508.349 924.344 509.3 924.835 510.117Z" fill="#263238"/>
<path d="M841.098 573.482C841.098 573.482 873.565 571.817 881.852 571.768C890.139 571.72 898.942 584.297 893.78 592.866C890.356 598.491 879.679 600.422 866.23 601.001C852.781 601.58 839.223 601.58 839.223 601.58C839.223 601.58 827.132 589.342 841.098 573.482Z" fill="#455A64"/>
<path d="M866.637 601.001C866.637 601.001 887.205 600.759 893.943 592.866C893.943 592.866 892.367 597.694 884.379 600.663C878.654 602.618 872.624 603.774 866.501 604.091L866.637 601.001Z" fill="#37474F"/>
<path d="M765.837 500.727C755.622 499.158 751.356 521.317 761.572 522.862L777.874 524.311C771.244 523.707 775.836 503.116 780.889 504.323L765.837 500.727Z" fill="#455A64"/>
<path d="M1176.97 494.813C1176.97 499.306 1175.45 503.696 1172.6 507.409C1169.75 511.123 1165.71 513.987 1161 515.629C1156.3 517.271 1151.14 517.614 1146.21 516.613C1141.28 515.613 1136.8 513.315 1133.36 510.02L1131.71 508.234C1127.84 503.652 1126.1 497.926 1126.84 492.237C1127.59 486.549 1130.76 481.331 1135.71 477.662C1140.66 473.993 1147.01 472.151 1153.44 472.517C1159.87 472.883 1165.9 475.429 1170.29 479.629L1172 481.464C1175.22 485.324 1176.97 490.004 1176.97 494.813Z" fill="#455A64"/>
<path d="M1176.97 494.813C1176.97 499.306 1175.45 503.696 1172.6 507.409C1169.75 511.123 1165.71 513.987 1161 515.629C1156.3 517.271 1151.14 517.614 1146.21 516.613C1141.28 515.613 1136.8 513.315 1133.36 510.02L1131.71 508.234L1026.94 395.818L1071.09 373.175L1170.29 479.581L1172 481.415C1175.24 485.289 1176.98 489.988 1176.97 494.813Z" fill="#455A64"/>
<path d="M1090.3 463.794C1094.7 467.894 1100.69 470.356 1107.05 470.684C1113.42 471.012 1119.69 469.18 1124.59 465.56C1129.49 461.939 1132.67 456.799 1133.47 451.179C1134.27 445.559 1132.64 439.878 1128.91 435.285L1115.95 421.405C1119.82 425.989 1121.56 431.72 1120.82 437.414C1120.07 443.108 1116.89 448.329 1111.93 451.998C1106.97 455.668 1100.62 457.505 1094.18 457.13C1087.74 456.756 1081.71 454.198 1077.34 449.986L1090.3 463.794Z" fill="#BA68C8"/>
<path d="M1069.4 196.452C1077.31 197.234 1084.96 199.443 1091.87 202.945L1060 186.482C1038.62 173.423 1007.84 174.195 973.632 191.72C909.049 224.864 856.666 305.464 856.666 371.751C856.666 404.315 869.137 427.585 889.704 438.641L890.139 438.882L924.156 456.286C918.123 452.799 912.865 448.356 908.642 443.179C917.023 443.994 925.498 443.561 933.719 441.899C936.708 441.32 939.724 440.62 942.794 439.751C942.392 439.644 942.001 439.506 941.626 439.341C939.991 438.66 938.427 437.853 936.952 436.927C934.278 435.271 931.897 433.269 929.888 430.988C927.142 427.865 924.91 424.411 923.259 420.729C921.045 421.014 918.812 421.159 916.575 421.164C911.287 421.258 906.039 420.327 901.197 418.436C900.065 417.975 898.967 417.451 897.91 416.867C896.959 416.336 896.008 415.708 895.193 415.081C893.227 406.91 892.271 398.573 892.34 390.217C892.34 323.955 944.723 243.33 1009.36 210.187C1017.61 205.91 1026.36 202.43 1035.44 199.807C1037.89 200.696 1040.19 201.873 1042.29 203.307C1044.51 204.819 1046.51 206.571 1048.24 208.521C1050.99 211.652 1053.24 215.114 1054.9 218.805C1057.12 218.528 1059.36 218.391 1061.61 218.394C1067.75 218.248 1073.83 219.556 1079.21 222.184C1080.58 222.844 1081.88 223.603 1083.1 224.453C1082.61 222.522 1082.09 220.615 1081.47 218.805C1079.01 210.763 1074.93 203.187 1069.4 196.452Z" fill="#263238"/>
<path d="M1091.87 202.945L1090.03 202.052C1083.6 199.063 1076.61 197.164 1069.4 196.452C1061.67 195.685 1053.85 196.003 1046.23 197.393C1042.56 198.011 1038.93 198.817 1035.36 199.807C1026.27 202.43 1017.53 205.91 1009.28 210.187C944.641 243.33 892.258 323.955 892.258 390.217C892.189 398.573 893.146 406.91 895.111 415.081C895.464 416.553 895.872 417.953 896.279 419.353C898.7 427.897 902.903 435.962 908.669 443.13C911.243 446.285 914.205 449.175 917.499 451.748C919.599 453.389 921.833 454.89 924.183 456.238C945.511 468.477 975.805 467.414 1009.22 450.227C1073.86 417.084 1126.24 336.483 1126.24 270.197C1126.22 237.054 1113.09 213.759 1091.87 202.945ZM1079.1 222.256C1080.47 222.916 1081.77 223.675 1082.99 224.526C1085.04 226.004 1086.91 227.671 1088.56 229.498C1096.71 238.575 1101.03 252.696 1101.03 270.269C1101.03 328.204 1053.21 401.876 996.617 430.916C982.353 438.158 968.632 442.117 956.976 442.117C952.114 442.167 947.291 441.346 942.794 439.703C942.392 439.595 942.001 439.458 941.626 439.292C939.991 438.612 938.427 437.804 936.952 436.878C935.119 435.735 933.425 434.424 931.899 432.968C931.22 432.34 930.568 431.64 929.915 430.94C927.169 427.817 924.937 424.363 923.286 420.681C919.147 410.94 917.173 400.578 917.472 390.169C917.472 389.396 917.472 388.648 917.472 387.755C918.667 330.062 965.97 258.055 1021.83 229.426C1023.11 228.774 1024.41 228.122 1025.72 227.519C1034.72 223.048 1044.56 220.048 1054.76 218.66C1056.98 218.383 1059.23 218.246 1061.47 218.249C1066.31 218.212 1071.1 219.033 1075.57 220.663C1076.8 221.096 1077.98 221.621 1079.1 222.232V222.256Z" fill="#455A64"/>
<path opacity="0.6" d="M1090.11 263.559C1090.11 321.493 1042.29 395.166 985.695 424.205C971.431 431.447 957.737 435.406 946.054 435.406C941.201 435.457 936.386 434.636 931.899 432.992C931.22 432.364 930.568 431.664 929.915 430.964C927.169 427.841 924.937 424.387 923.286 420.705C919.147 410.964 917.173 400.602 917.472 390.193C917.472 389.421 917.472 388.672 917.472 387.779C918.667 330.086 965.97 258.079 1021.83 229.45C1023.11 228.798 1024.41 228.146 1025.72 227.543C1034.72 223.072 1044.56 220.072 1054.76 218.684C1056.98 218.407 1059.23 218.27 1061.47 218.274C1066.31 218.236 1071.1 219.057 1075.57 220.687C1076.31 221.339 1076.99 222.039 1077.64 222.739C1085.79 231.864 1090.11 245.985 1090.11 263.559Z" fill="white"/>
<path d="M1682.19 982.25C1685.92 982.25 1688.94 979.228 1688.94 975.5C1688.94 971.772 1685.92 968.75 1682.19 968.75C1678.46 968.75 1675.44 971.772 1675.44 975.5C1675.44 979.228 1678.46 982.25 1682.19 982.25Z" stroke="black" stroke-width="6.75"/>
<path d="M1675.44 992.375H1688.94V1034.56H1675.44V992.375ZM1702.44 1008.41V1034.56H1714.25V1010.94C1714.25 1006.72 1716.78 1003.34 1721 1003.34C1725.22 1003.34 1727.75 1007.56 1727.75 1010.94V1034.56H1739.56V1008.41C1739.56 1003.34 1733.66 992.375 1721 992.375C1708.34 992.375 1702.44 1003.34 1702.44 1008.41Z" stroke="black" stroke-width="6.75" stroke-linejoin="round"/>
<path d="M1249 203H1234.64V156.455H1249.64C1254.15 156.455 1258.02 157.386 1261.23 159.25C1264.44 161.098 1266.9 163.758 1268.61 167.227C1270.33 170.682 1271.18 174.818 1271.18 179.636C1271.18 184.485 1270.32 188.659 1268.59 192.159C1266.86 195.644 1264.35 198.326 1261.05 200.205C1257.74 202.068 1253.73 203 1249 203ZM1240.27 198H1248.64C1252.48 198 1255.67 197.258 1258.2 195.773C1260.73 194.288 1262.62 192.174 1263.86 189.432C1265.11 186.689 1265.73 183.424 1265.73 179.636C1265.73 175.879 1265.11 172.644 1263.89 169.932C1262.66 167.205 1260.83 165.114 1258.39 163.659C1255.95 162.189 1252.91 161.455 1249.27 161.455H1240.27V198ZM1280.36 203H1274.45L1291.54 156.455H1297.36L1314.45 203H1308.54L1294.63 163.818H1294.27L1280.36 203ZM1282.54 184.818H1306.36V189.818H1282.54V184.818ZM1347.15 168.091C1346.88 165.788 1345.77 164 1343.84 162.727C1341.9 161.455 1339.52 160.818 1336.7 160.818C1334.64 160.818 1332.84 161.152 1331.29 161.818C1329.76 162.485 1328.56 163.402 1327.7 164.568C1326.85 165.735 1326.43 167.061 1326.43 168.545C1326.43 169.788 1326.72 170.856 1327.31 171.75C1327.92 172.629 1328.69 173.364 1329.63 173.955C1330.57 174.53 1331.55 175.008 1332.59 175.386C1333.62 175.75 1334.56 176.045 1335.43 176.273L1340.15 177.545C1341.37 177.864 1342.71 178.303 1344.2 178.864C1345.7 179.424 1347.13 180.189 1348.49 181.159C1349.87 182.114 1351.01 183.341 1351.9 184.841C1352.8 186.341 1353.24 188.182 1353.24 190.364C1353.24 192.879 1352.59 195.152 1351.27 197.182C1349.96 199.212 1348.05 200.826 1345.54 202.023C1343.04 203.22 1340 203.818 1336.43 203.818C1333.09 203.818 1330.21 203.28 1327.77 202.205C1325.34 201.129 1323.43 199.629 1322.04 197.705C1320.66 195.78 1319.88 193.545 1319.7 191H1325.52C1325.67 192.758 1326.26 194.212 1327.29 195.364C1328.34 196.5 1329.65 197.348 1331.24 197.909C1332.85 198.455 1334.58 198.727 1336.43 198.727C1338.58 198.727 1340.51 198.379 1342.22 197.682C1343.93 196.97 1345.29 195.985 1346.29 194.727C1347.29 193.455 1347.79 191.97 1347.79 190.273C1347.79 188.727 1347.36 187.47 1346.49 186.5C1345.63 185.53 1344.49 184.742 1343.09 184.136C1341.68 183.53 1340.15 183 1338.52 182.545L1332.79 180.909C1329.15 179.864 1326.27 178.371 1324.15 176.432C1322.03 174.492 1320.97 171.955 1320.97 168.818C1320.97 166.212 1321.68 163.939 1323.09 162C1324.51 160.045 1326.42 158.53 1328.81 157.455C1331.22 156.364 1333.91 155.818 1336.88 155.818C1339.88 155.818 1342.55 156.356 1344.88 157.432C1347.21 158.492 1349.06 159.947 1350.43 161.795C1351.8 163.644 1352.53 165.742 1352.61 168.091H1347.15ZM1362.51 203V156.455H1368.15V177.182H1392.97V156.455H1398.6V203H1392.97V182.182H1368.15V203H1362.51ZM1409.89 203V156.455H1426.16C1429.4 156.455 1432.08 157.015 1434.18 158.136C1436.29 159.242 1437.86 160.735 1438.89 162.614C1439.92 164.477 1440.43 166.545 1440.43 168.818C1440.43 170.818 1440.08 172.47 1439.36 173.773C1438.67 175.076 1437.74 176.106 1436.59 176.864C1435.45 177.621 1434.22 178.182 1432.89 178.545V179C1434.31 179.091 1435.74 179.591 1437.18 180.5C1438.62 181.409 1439.83 182.712 1440.8 184.409C1441.77 186.106 1442.25 188.182 1442.25 190.636C1442.25 192.97 1441.72 195.068 1440.66 196.932C1439.6 198.795 1437.92 200.273 1435.64 201.364C1433.35 202.455 1430.37 203 1426.7 203H1409.89ZM1415.52 198H1426.7C1430.39 198 1433 197.288 1434.55 195.864C1436.11 194.424 1436.89 192.682 1436.89 190.636C1436.89 189.061 1436.48 187.606 1435.68 186.273C1434.88 184.924 1433.73 183.848 1432.25 183.045C1430.77 182.227 1429.01 181.818 1426.98 181.818H1415.52V198ZM1415.52 176.909H1425.98C1427.67 176.909 1429.2 176.576 1430.57 175.909C1431.95 175.242 1433.04 174.303 1433.84 173.091C1434.66 171.879 1435.07 170.455 1435.07 168.818C1435.07 166.773 1434.36 165.038 1432.93 163.614C1431.51 162.174 1429.25 161.455 1426.16 161.455H1415.52V176.909ZM1490.78 179.727C1490.78 184.636 1489.9 188.879 1488.12 192.455C1486.35 196.03 1483.92 198.788 1480.83 200.727C1477.74 202.667 1474.21 203.636 1470.24 203.636C1466.27 203.636 1462.74 202.667 1459.65 200.727C1456.56 198.788 1454.13 196.03 1452.35 192.455C1450.58 188.879 1449.69 184.636 1449.69 179.727C1449.69 174.818 1450.58 170.576 1452.35 167C1454.13 163.424 1456.56 160.667 1459.65 158.727C1462.74 156.788 1466.27 155.818 1470.24 155.818C1474.21 155.818 1477.74 156.788 1480.83 158.727C1483.92 160.667 1486.35 163.424 1488.12 167C1489.9 170.576 1490.78 174.818 1490.78 179.727ZM1485.33 179.727C1485.33 175.697 1484.66 172.295 1483.31 169.523C1481.97 166.75 1480.16 164.652 1477.88 163.227C1475.6 161.803 1473.06 161.091 1470.24 161.091C1467.42 161.091 1464.87 161.803 1462.58 163.227C1460.31 164.652 1458.5 166.75 1457.15 169.523C1455.81 172.295 1455.15 175.697 1455.15 179.727C1455.15 183.758 1455.81 187.159 1457.15 189.932C1458.5 192.705 1460.31 194.803 1462.58 196.227C1464.87 197.652 1467.42 198.364 1470.24 198.364C1473.06 198.364 1475.6 197.652 1477.88 196.227C1480.16 194.803 1481.97 192.705 1483.31 189.932C1484.66 187.159 1485.33 183.758 1485.33 179.727ZM1499.98 203H1494.07L1511.16 156.455H1516.98L1534.07 203H1528.16L1514.26 163.818H1513.89L1499.98 203ZM1502.16 184.818H1525.98V189.818H1502.16V184.818ZM1541.32 203V156.455H1557.05C1560.69 156.455 1563.67 157.076 1566.01 158.318C1568.34 159.545 1570.07 161.235 1571.19 163.386C1572.31 165.538 1572.87 167.985 1572.87 170.727C1572.87 173.47 1572.31 175.902 1571.19 178.023C1570.07 180.144 1568.35 181.811 1566.03 183.023C1563.71 184.22 1560.75 184.818 1557.14 184.818H1544.41V179.727H1556.96C1559.45 179.727 1561.45 179.364 1562.96 178.636C1564.49 177.909 1565.6 176.879 1566.28 175.545C1566.98 174.197 1567.32 172.591 1567.32 170.727C1567.32 168.864 1566.98 167.235 1566.28 165.841C1565.58 164.447 1564.47 163.371 1562.94 162.614C1561.41 161.841 1559.38 161.455 1556.87 161.455H1546.96V203H1541.32ZM1563.23 182.091L1574.69 203H1568.14L1556.87 182.091H1563.23ZM1596.62 203H1582.26V156.455H1597.26C1601.78 156.455 1605.64 157.386 1608.85 159.25C1612.06 161.098 1614.53 163.758 1616.24 167.227C1617.95 170.682 1618.81 174.818 1618.81 179.636C1618.81 184.485 1617.94 188.659 1616.22 192.159C1614.49 195.644 1611.97 198.326 1608.67 200.205C1605.37 202.068 1601.35 203 1596.62 203ZM1587.9 198H1596.26C1600.11 198 1603.3 197.258 1605.83 195.773C1608.36 194.288 1610.25 192.174 1611.49 189.432C1612.73 186.689 1613.35 183.424 1613.35 179.636C1613.35 175.879 1612.74 172.644 1611.51 169.932C1610.28 167.205 1608.45 165.114 1606.01 163.659C1603.57 162.189 1600.53 161.455 1596.9 161.455H1587.9V198Z" fill="black"/>
<path d="M1356.45 262C1355.95 260.47 1355.3 259.098 1354.48 257.886C1353.67 256.659 1352.71 255.614 1351.59 254.75C1350.48 253.886 1349.23 253.227 1347.82 252.773C1346.41 252.318 1344.86 252.091 1343.18 252.091C1340.42 252.091 1337.92 252.803 1335.66 254.227C1333.4 255.652 1331.61 257.75 1330.27 260.523C1328.94 263.295 1328.27 266.697 1328.27 270.727C1328.27 274.758 1328.95 278.159 1330.3 280.932C1331.64 283.705 1333.47 285.803 1335.77 287.227C1338.08 288.652 1340.67 289.364 1343.55 289.364C1346.21 289.364 1348.56 288.795 1350.59 287.659C1352.64 286.508 1354.23 284.886 1355.36 282.795C1356.52 280.689 1357.09 278.212 1357.09 275.364L1358.82 275.727H1344.82V270.727H1362.55V275.727C1362.55 279.561 1361.73 282.894 1360.09 285.727C1358.47 288.561 1356.23 290.758 1353.36 292.318C1350.52 293.864 1347.24 294.636 1343.55 294.636C1339.42 294.636 1335.8 293.667 1332.68 291.727C1329.58 289.788 1327.15 287.03 1325.41 283.455C1323.68 279.879 1322.82 275.636 1322.82 270.727C1322.82 267.045 1323.31 263.735 1324.3 260.795C1325.3 257.841 1326.7 255.326 1328.52 253.25C1330.34 251.174 1332.49 249.583 1334.98 248.477C1337.46 247.371 1340.2 246.818 1343.18 246.818C1345.64 246.818 1347.92 247.189 1350.05 247.932C1352.18 248.659 1354.08 249.697 1355.75 251.045C1357.43 252.379 1358.83 253.977 1359.95 255.841C1361.08 257.689 1361.85 259.742 1362.27 262H1356.45ZM1386.11 294.727C1382.74 294.727 1379.84 293.985 1377.4 292.5C1374.98 291 1373.11 288.909 1371.79 286.227C1370.49 283.53 1369.84 280.394 1369.84 276.818C1369.84 273.242 1370.49 270.091 1371.79 267.364C1373.11 264.621 1374.94 262.485 1377.29 260.955C1379.65 259.409 1382.41 258.636 1385.56 258.636C1387.38 258.636 1389.18 258.939 1390.95 259.545C1392.72 260.152 1394.34 261.136 1395.79 262.5C1397.24 263.848 1398.4 265.636 1399.27 267.864C1400.13 270.091 1400.56 272.833 1400.56 276.091V278.364H1373.65V273.727H1395.11C1395.11 271.758 1394.71 270 1393.93 268.455C1393.15 266.909 1392.05 265.689 1390.61 264.795C1389.18 263.902 1387.5 263.455 1385.56 263.455C1383.43 263.455 1381.58 263.985 1380.02 265.045C1378.47 266.091 1377.28 267.455 1376.45 269.136C1375.62 270.818 1375.2 272.621 1375.2 274.545V277.636C1375.2 280.273 1375.65 282.508 1376.56 284.341C1377.49 286.159 1378.77 287.545 1380.4 288.5C1382.04 289.439 1383.94 289.909 1386.11 289.909C1387.52 289.909 1388.79 289.712 1389.93 289.318C1391.08 288.909 1392.07 288.303 1392.9 287.5C1393.74 286.682 1394.38 285.667 1394.84 284.455L1400.02 285.909C1399.47 287.667 1398.55 289.212 1397.27 290.545C1395.98 291.864 1394.39 292.894 1392.49 293.636C1390.6 294.364 1388.47 294.727 1386.11 294.727ZM1408.72 294V259.091H1413.9V264.364H1414.27C1414.9 262.636 1416.05 261.235 1417.72 260.159C1419.39 259.083 1421.27 258.545 1423.36 258.545C1423.75 258.545 1424.24 258.553 1424.84 258.568C1425.43 258.583 1425.87 258.606 1426.18 258.636V264.091C1425.99 264.045 1425.58 263.977 1424.93 263.886C1424.29 263.78 1423.62 263.727 1422.9 263.727C1421.21 263.727 1419.69 264.083 1418.36 264.795C1417.04 265.492 1415.99 266.462 1415.22 267.705C1414.46 268.932 1414.09 270.333 1414.09 271.909V294H1408.72ZM1457.26 266.909L1452.44 268.273C1452.14 267.47 1451.69 266.689 1451.1 265.932C1450.53 265.159 1449.74 264.523 1448.74 264.023C1447.74 263.523 1446.46 263.273 1444.9 263.273C1442.76 263.273 1440.98 263.765 1439.56 264.75C1438.15 265.72 1437.44 266.955 1437.44 268.455C1437.44 269.788 1437.93 270.841 1438.9 271.614C1439.87 272.386 1441.38 273.03 1443.44 273.545L1448.62 274.818C1451.75 275.576 1454.07 276.735 1455.6 278.295C1457.13 279.841 1457.9 281.833 1457.9 284.273C1457.9 286.273 1457.32 288.061 1456.17 289.636C1455.03 291.212 1453.44 292.455 1451.4 293.364C1449.35 294.273 1446.97 294.727 1444.26 294.727C1440.7 294.727 1437.75 293.955 1435.42 292.409C1433.09 290.864 1431.61 288.606 1430.99 285.636L1436.08 284.364C1436.56 286.242 1437.48 287.652 1438.83 288.591C1440.19 289.53 1441.97 290 1444.17 290C1446.67 290 1448.66 289.47 1450.12 288.409C1451.61 287.333 1452.35 286.045 1452.35 284.545C1452.35 283.333 1451.93 282.318 1451.08 281.5C1450.23 280.667 1448.93 280.045 1447.17 279.636L1441.35 278.273C1438.16 277.515 1435.81 276.341 1434.31 274.75C1432.82 273.144 1432.08 271.136 1432.08 268.727C1432.08 266.758 1432.63 265.015 1433.74 263.5C1434.86 261.985 1436.38 260.795 1438.31 259.932C1440.25 259.068 1442.44 258.636 1444.9 258.636C1448.35 258.636 1451.06 259.394 1453.03 260.909C1455.02 262.424 1456.43 264.424 1457.26 266.909ZM1480.15 294.727C1477 294.727 1474.24 293.977 1471.86 292.477C1469.49 290.977 1467.65 288.879 1466.31 286.182C1464.99 283.485 1464.34 280.333 1464.34 276.727C1464.34 273.091 1464.99 269.917 1466.31 267.205C1467.65 264.492 1469.49 262.386 1471.86 260.886C1474.24 259.386 1477 258.636 1480.15 258.636C1483.3 258.636 1486.06 259.386 1488.43 260.886C1490.8 262.386 1492.65 264.492 1493.97 267.205C1495.3 269.917 1495.97 273.091 1495.97 276.727C1495.97 280.333 1495.3 283.485 1493.97 286.182C1492.65 288.879 1490.8 290.977 1488.43 292.477C1486.06 293.977 1483.3 294.727 1480.15 294.727ZM1480.15 289.909C1482.55 289.909 1484.52 289.295 1486.06 288.068C1487.61 286.841 1488.75 285.227 1489.49 283.227C1490.24 281.227 1490.61 279.061 1490.61 276.727C1490.61 274.394 1490.24 272.22 1489.49 270.205C1488.75 268.189 1487.61 266.561 1486.06 265.318C1484.52 264.076 1482.55 263.455 1480.15 263.455C1477.76 263.455 1475.79 264.076 1474.24 265.318C1472.7 266.561 1471.55 268.189 1470.81 270.205C1470.07 272.22 1469.7 274.394 1469.7 276.727C1469.7 279.061 1470.07 281.227 1470.81 283.227C1471.55 285.227 1472.7 286.841 1474.24 288.068C1475.79 289.295 1477.76 289.909 1480.15 289.909ZM1509.52 273V294H1504.16V259.091H1509.34V264.545H1509.8C1510.61 262.773 1511.86 261.348 1513.52 260.273C1515.19 259.182 1517.34 258.636 1519.98 258.636C1522.34 258.636 1524.41 259.121 1526.18 260.091C1527.95 261.045 1529.33 262.5 1530.32 264.455C1531.3 266.394 1531.8 268.848 1531.8 271.818V294H1526.43V272.182C1526.43 269.439 1525.72 267.303 1524.3 265.773C1522.87 264.227 1520.92 263.455 1518.43 263.455C1516.72 263.455 1515.19 263.826 1513.84 264.568C1512.51 265.311 1511.45 266.394 1510.68 267.818C1509.91 269.242 1509.52 270.97 1509.52 273Z" fill="black"/>
<path d="M1274.88 454.091V489H1270.66V454.091H1274.88ZM1286.84 473.25V489H1282.81V462.818H1286.7V466.909H1287.04C1287.66 465.58 1288.59 464.511 1289.84 463.705C1291.09 462.886 1292.7 462.477 1294.68 462.477C1296.45 462.477 1298 462.841 1299.33 463.568C1300.66 464.284 1301.7 465.375 1302.43 466.841C1303.17 468.295 1303.54 470.136 1303.54 472.364V489H1299.52V472.636C1299.52 470.58 1298.99 468.977 1297.92 467.83C1296.85 466.67 1295.38 466.091 1293.52 466.091C1292.24 466.091 1291.09 466.369 1290.08 466.926C1289.08 467.483 1288.29 468.295 1287.71 469.364C1287.13 470.432 1286.84 471.727 1286.84 473.25ZM1310.89 489V462.818H1314.92V489H1310.89ZM1312.94 458.455C1312.15 458.455 1311.48 458.188 1310.91 457.653C1310.35 457.119 1310.07 456.477 1310.07 455.727C1310.07 454.977 1310.35 454.335 1310.91 453.801C1311.48 453.267 1312.15 453 1312.94 453C1313.72 453 1314.39 453.267 1314.95 453.801C1315.52 454.335 1315.8 454.977 1315.8 455.727C1315.8 456.477 1315.52 457.119 1314.95 457.653C1314.39 458.188 1313.72 458.455 1312.94 458.455ZM1332.92 489.545C1330.47 489.545 1328.35 488.966 1326.58 487.807C1324.81 486.648 1323.44 485.051 1322.49 483.017C1321.53 480.983 1321.06 478.659 1321.06 476.045C1321.06 473.386 1321.54 471.04 1322.52 469.006C1323.51 466.96 1324.89 465.364 1326.65 464.216C1328.42 463.057 1330.49 462.477 1332.85 462.477C1334.69 462.477 1336.35 462.818 1337.83 463.5C1339.31 464.182 1340.52 465.136 1341.46 466.364C1342.4 467.591 1342.99 469.023 1343.22 470.659H1339.19C1338.89 469.466 1338.2 468.409 1337.15 467.489C1336.1 466.557 1334.69 466.091 1332.92 466.091C1331.35 466.091 1329.98 466.5 1328.79 467.318C1327.62 468.125 1326.71 469.267 1326.05 470.744C1325.4 472.21 1325.08 473.932 1325.08 475.909C1325.08 477.932 1325.4 479.693 1326.03 481.193C1326.68 482.693 1327.59 483.858 1328.76 484.688C1329.94 485.517 1331.33 485.932 1332.92 485.932C1333.97 485.932 1334.91 485.75 1335.77 485.386C1336.62 485.023 1337.34 484.5 1337.93 483.818C1338.52 483.136 1338.94 482.318 1339.19 481.364H1343.22C1342.99 482.909 1342.43 484.301 1341.53 485.54C1340.64 486.767 1339.47 487.744 1338 488.472C1336.54 489.188 1334.85 489.545 1332.92 489.545ZM1349.1 489V462.818H1353.12V489H1349.1ZM1351.14 458.455C1350.36 458.455 1349.68 458.188 1349.11 457.653C1348.56 457.119 1348.28 456.477 1348.28 455.727C1348.28 454.977 1348.56 454.335 1349.11 453.801C1349.68 453.267 1350.36 453 1351.14 453C1351.93 453 1352.6 453.267 1353.15 453.801C1353.72 454.335 1354 454.977 1354 455.727C1354 456.477 1353.72 457.119 1353.15 457.653C1352.6 458.188 1351.93 458.455 1351.14 458.455ZM1368.19 489.614C1366.53 489.614 1365.03 489.301 1363.67 488.676C1362.32 488.04 1361.25 487.125 1360.45 485.932C1359.66 484.727 1359.26 483.273 1359.26 481.568C1359.26 480.068 1359.55 478.852 1360.15 477.92C1360.74 476.977 1361.53 476.239 1362.51 475.705C1363.5 475.17 1364.59 474.773 1365.79 474.511C1366.99 474.239 1368.2 474.023 1369.42 473.864C1371.01 473.659 1372.3 473.506 1373.29 473.403C1374.29 473.29 1375.01 473.102 1375.47 472.841C1375.94 472.58 1376.17 472.125 1376.17 471.477V471.341C1376.17 469.659 1375.71 468.352 1374.79 467.42C1373.88 466.489 1372.5 466.023 1370.65 466.023C1368.73 466.023 1367.22 466.443 1366.13 467.284C1365.04 468.125 1364.27 469.023 1363.83 469.977L1360.01 468.614C1360.69 467.023 1361.6 465.784 1362.74 464.898C1363.88 464 1365.13 463.375 1366.49 463.023C1367.85 462.659 1369.19 462.477 1370.51 462.477C1371.35 462.477 1372.32 462.58 1373.41 462.784C1374.51 462.977 1375.57 463.381 1376.59 463.994C1377.63 464.608 1378.49 465.534 1379.17 466.773C1379.85 468.011 1380.19 469.67 1380.19 471.75V489H1376.17V485.455H1375.96C1375.69 486.023 1375.24 486.631 1374.6 487.278C1373.96 487.926 1373.12 488.477 1372.06 488.932C1371 489.386 1369.71 489.614 1368.19 489.614ZM1368.8 486C1370.4 486 1371.74 485.688 1372.83 485.062C1373.93 484.438 1374.76 483.631 1375.32 482.642C1375.88 481.653 1376.17 480.614 1376.17 479.523V475.841C1376 476.045 1375.62 476.233 1375.04 476.403C1374.48 476.562 1373.82 476.705 1373.07 476.83C1372.33 476.943 1371.61 477.045 1370.9 477.136C1370.21 477.216 1369.65 477.284 1369.21 477.341C1368.17 477.477 1367.19 477.699 1366.28 478.006C1365.38 478.301 1364.66 478.75 1364.1 479.352C1363.55 479.943 1363.28 480.75 1363.28 481.773C1363.28 483.17 1363.8 484.227 1364.83 484.943C1365.88 485.648 1367.2 486 1368.8 486ZM1387.53 489V462.818H1391.42V466.773H1391.69C1392.17 465.477 1393.03 464.426 1394.28 463.619C1395.53 462.812 1396.94 462.409 1398.51 462.409C1398.81 462.409 1399.18 462.415 1399.62 462.426C1400.06 462.437 1400.4 462.455 1400.62 462.477V466.568C1400.49 466.534 1400.18 466.483 1399.69 466.415C1399.21 466.335 1398.7 466.295 1398.17 466.295C1396.9 466.295 1395.76 466.562 1394.76 467.097C1393.77 467.619 1392.99 468.347 1392.41 469.278C1391.84 470.199 1391.56 471.25 1391.56 472.432V489H1387.53ZM1420.87 489H1416.44L1429.26 454.091H1433.62L1446.44 489H1442.01L1431.57 459.614H1431.3L1420.87 489ZM1422.51 475.364H1440.37V479.114H1422.51V475.364ZM1455.35 473.25V489H1451.33V462.818H1455.22V466.909H1455.56C1456.17 465.58 1457.1 464.511 1458.35 463.705C1459.6 462.886 1461.22 462.477 1463.19 462.477C1464.97 462.477 1466.52 462.841 1467.85 463.568C1469.18 464.284 1470.21 465.375 1470.95 466.841C1471.69 468.295 1472.06 470.136 1472.06 472.364V489H1468.03V472.636C1468.03 470.58 1467.5 468.977 1466.43 467.83C1465.36 466.67 1463.9 466.091 1462.03 466.091C1460.75 466.091 1459.6 466.369 1458.59 466.926C1457.59 467.483 1456.8 468.295 1456.22 469.364C1455.64 470.432 1455.35 471.727 1455.35 473.25ZM1487.11 489.614C1485.45 489.614 1483.95 489.301 1482.6 488.676C1481.24 488.04 1480.17 487.125 1479.37 485.932C1478.58 484.727 1478.18 483.273 1478.18 481.568C1478.18 480.068 1478.48 478.852 1479.07 477.92C1479.66 476.977 1480.45 476.239 1481.44 475.705C1482.43 475.17 1483.52 474.773 1484.71 474.511C1485.91 474.239 1487.12 474.023 1488.34 473.864C1489.93 473.659 1491.22 473.506 1492.21 473.403C1493.21 473.29 1493.94 473.102 1494.39 472.841C1494.86 472.58 1495.09 472.125 1495.09 471.477V471.341C1495.09 469.659 1494.63 468.352 1493.71 467.42C1492.8 466.489 1491.42 466.023 1489.57 466.023C1487.65 466.023 1486.14 466.443 1485.05 467.284C1483.96 468.125 1483.19 469.023 1482.75 469.977L1478.93 468.614C1479.61 467.023 1480.52 465.784 1481.66 464.898C1482.81 464 1484.06 463.375 1485.41 463.023C1486.77 462.659 1488.11 462.477 1489.43 462.477C1490.27 462.477 1491.24 462.58 1492.33 462.784C1493.43 462.977 1494.49 463.381 1495.52 463.994C1496.55 464.608 1497.41 465.534 1498.09 466.773C1498.77 468.011 1499.11 469.67 1499.11 471.75V489H1495.09V485.455H1494.89C1494.61 486.023 1494.16 486.631 1493.52 487.278C1492.89 487.926 1492.04 488.477 1490.98 488.932C1489.93 489.386 1488.64 489.614 1487.11 489.614ZM1487.73 486C1489.32 486 1490.66 485.688 1491.75 485.062C1492.85 484.438 1493.68 483.631 1494.24 482.642C1494.81 481.653 1495.09 480.614 1495.09 479.523V475.841C1494.92 476.045 1494.54 476.233 1493.97 476.403C1493.4 476.562 1492.74 476.705 1491.99 476.83C1491.25 476.943 1490.53 477.045 1489.82 477.136C1489.13 477.216 1488.57 477.284 1488.14 477.341C1487.09 477.477 1486.11 477.699 1485.2 478.006C1484.31 478.301 1483.58 478.75 1483.02 479.352C1482.48 479.943 1482.2 480.75 1482.2 481.773C1482.2 483.17 1482.72 484.227 1483.75 484.943C1484.8 485.648 1486.12 486 1487.73 486ZM1487.86 459.273L1492.02 451.364H1496.73L1491.41 459.273H1487.86ZM1510.48 454.091V489H1506.46V454.091H1510.48ZM1517.85 489V462.818H1521.87V489H1517.85ZM1519.89 458.455C1519.11 458.455 1518.43 458.188 1517.86 457.653C1517.31 457.119 1517.03 456.477 1517.03 455.727C1517.03 454.977 1517.31 454.335 1517.86 453.801C1518.43 453.267 1519.11 453 1519.89 453C1520.68 453 1521.35 453.267 1521.9 453.801C1522.47 454.335 1522.75 454.977 1522.75 455.727C1522.75 456.477 1522.47 457.119 1521.9 457.653C1521.35 458.188 1520.68 458.455 1519.89 458.455ZM1547.78 468.682L1544.17 469.705C1543.94 469.102 1543.61 468.517 1543.16 467.949C1542.73 467.369 1542.14 466.892 1541.39 466.517C1540.64 466.142 1539.68 465.955 1538.51 465.955C1536.91 465.955 1535.57 466.324 1534.5 467.062C1533.45 467.79 1532.92 468.716 1532.92 469.841C1532.92 470.841 1533.28 471.631 1534.01 472.21C1534.74 472.79 1535.87 473.273 1537.42 473.659L1541.3 474.614C1543.65 475.182 1545.39 476.051 1546.54 477.222C1547.69 478.381 1548.26 479.875 1548.26 481.705C1548.26 483.205 1547.83 484.545 1546.96 485.727C1546.11 486.909 1544.92 487.841 1543.38 488.523C1541.85 489.205 1540.07 489.545 1538.03 489.545C1535.36 489.545 1533.15 488.966 1531.4 487.807C1529.65 486.648 1528.54 484.955 1528.08 482.727L1531.9 481.773C1532.26 483.182 1532.95 484.239 1533.96 484.943C1534.98 485.648 1536.32 486 1537.96 486C1539.84 486 1541.33 485.602 1542.43 484.807C1543.54 484 1544.1 483.034 1544.1 481.909C1544.1 481 1543.78 480.239 1543.15 479.625C1542.51 479 1541.53 478.534 1540.21 478.227L1535.85 477.205C1533.45 476.636 1531.69 475.756 1530.57 474.562C1529.45 473.358 1528.9 471.852 1528.9 470.045C1528.9 468.568 1529.31 467.261 1530.14 466.125C1530.98 464.989 1532.12 464.097 1533.57 463.449C1535.02 462.801 1536.67 462.477 1538.51 462.477C1541.1 462.477 1543.13 463.045 1544.61 464.182C1546.1 465.318 1547.16 466.818 1547.78 468.682ZM1565.29 489.545C1562.77 489.545 1560.59 488.989 1558.76 487.875C1556.95 486.75 1555.54 485.182 1554.55 483.17C1553.58 481.148 1553.09 478.795 1553.09 476.114C1553.09 473.432 1553.58 471.068 1554.55 469.023C1555.54 466.966 1556.92 465.364 1558.68 464.216C1560.45 463.057 1562.52 462.477 1564.88 462.477C1566.25 462.477 1567.59 462.705 1568.92 463.159C1570.25 463.614 1571.46 464.352 1572.55 465.375C1573.64 466.386 1574.51 467.727 1575.16 469.398C1575.81 471.068 1576.13 473.125 1576.13 475.568V477.273H1555.95V473.795H1572.04C1572.04 472.318 1571.75 471 1571.16 469.841C1570.58 468.682 1569.75 467.767 1568.67 467.097C1567.6 466.426 1566.34 466.091 1564.88 466.091C1563.28 466.091 1561.89 466.489 1560.72 467.284C1559.56 468.068 1558.67 469.091 1558.05 470.352C1557.42 471.614 1557.11 472.966 1557.11 474.409V476.727C1557.11 478.705 1557.45 480.381 1558.13 481.756C1558.83 483.119 1559.79 484.159 1561.01 484.875C1562.24 485.58 1563.67 485.932 1565.29 485.932C1566.35 485.932 1567.3 485.784 1568.16 485.489C1569.02 485.182 1569.76 484.727 1570.39 484.125C1571.01 483.511 1571.5 482.75 1571.84 481.841L1575.72 482.932C1575.31 484.25 1574.63 485.409 1573.66 486.409C1572.7 487.398 1571.5 488.17 1570.08 488.727C1568.66 489.273 1567.06 489.545 1565.29 489.545Z" fill="white"/>
<path d="M1837.33 1003.5C1837.33 1006.15 1836.56 1008.73 1835.13 1010.93C1833.69 1013.13 1831.65 1014.84 1829.26 1015.86C1826.87 1016.87 1824.25 1017.13 1821.71 1016.62C1819.18 1016.1 1816.85 1014.83 1815.02 1012.96C1813.2 1011.09 1811.95 1008.7 1811.45 1006.11C1810.94 1003.51 1811.2 1000.83 1812.19 998.382C1813.18 995.938 1814.85 993.849 1817 992.379C1819.15 990.909 1821.68 990.125 1824.26 990.125C1827.72 990.136 1831.04 991.549 1833.49 994.055C1835.94 996.561 1837.32 999.956 1837.33 1003.5ZM1865.09 985.109V1021.89C1865.09 1028.1 1862.68 1034.05 1858.39 1038.44C1854.11 1042.83 1848.29 1045.3 1842.23 1045.3H1806.3C1800.23 1045.3 1794.42 1042.83 1790.13 1038.44C1785.84 1034.05 1783.43 1028.1 1783.43 1021.89V985.109C1783.43 978.902 1785.84 972.948 1790.13 968.559C1794.42 964.169 1800.23 961.703 1806.3 961.703H1842.23C1848.29 961.703 1854.11 964.169 1858.39 968.559C1862.68 972.948 1865.09 978.902 1865.09 985.109ZM1843.86 1003.5C1843.86 999.532 1842.71 995.653 1840.56 992.354C1838.4 989.055 1835.34 986.483 1831.76 984.965C1828.18 983.446 1824.24 983.049 1820.44 983.823C1816.64 984.597 1813.14 986.508 1810.4 989.314C1807.66 992.119 1805.8 995.694 1805.04 999.586C1804.28 1003.48 1804.67 1007.51 1806.16 1011.18C1807.64 1014.84 1810.15 1017.98 1813.37 1020.18C1816.6 1022.39 1820.39 1023.56 1824.26 1023.56C1829.46 1023.56 1834.44 1021.45 1838.12 1017.69C1841.79 1013.92 1843.86 1008.82 1843.86 1003.5ZM1850.39 981.766C1850.39 980.774 1850.1 979.804 1849.57 978.979C1849.03 978.154 1848.26 977.511 1847.37 977.132C1846.47 976.752 1845.49 976.653 1844.54 976.846C1843.59 977.04 1842.71 977.518 1842.03 978.219C1841.34 978.92 1840.88 979.814 1840.69 980.787C1840.5 981.76 1840.6 982.769 1840.97 983.685C1841.34 984.602 1841.97 985.385 1842.77 985.936C1843.58 986.487 1844.52 986.781 1845.49 986.781C1846.79 986.781 1848.04 986.253 1848.96 985.312C1849.88 984.372 1850.39 983.096 1850.39 981.766Z" fill="#BEA8EB"/>
<defs>
<filter id="filter0_d_6_115" x="110.157" y="408.898" width="1187.84" height="549.102" filterUnits="userSpaceOnUse" color-interpolation-filters="sRGB">
<feFlood flood-opacity="0" result="BackgroundImageFix"/>
<feColorMatrix in="SourceAlpha" type="matrix" values="0 0 0 0 0 0 0 0 0 0 0 0 0 0 0 0 0 0 127 0" result="hardAlpha"/>
<feOffset dx="18" dy="4"/>
<feGaussianBlur stdDeviation="2"/>
<feComposite in2="hardAlpha" operator="out"/>
<feColorMatrix type="matrix" values="0 0 0 0 0 0 0 0 0 0 0 0 0 0 0 0 0 0 0.25 0"/>
<feBlend mode="normal" in2="BackgroundImageFix" result="effect1_dropShadow_6_115"/>
<feBlend mode="normal" in="SourceGraphic" in2="effect1_dropShadow_6_115" result="shape"/>
</filter>
<linearGradient id="paint0_linear_6_115" x1="24.5" y1="86" x2="2009" y2="1026" gradientUnits="userSpaceOnUse">
<stop stop-color="#B7A8C4"/>
<stop offset="1" stop-color="#E4E0E0" stop-opacity="0"/>
</linearGradient>
<linearGradient id="paint1_linear_6_115" x1="157.5" y1="0" x2="157.5" y2="1004" gradientUnits="userSpaceOnUse">
<stop stop-color="#756487"/>
<stop offset="1" stop-color="#896D6D" stop-opacity="0"/>
</linearGradient>
</defs>
</svg>
