<svg width="1920" height="1080" viewBox="0 0 1920 1080" fill="none" xmlns="http://www.w3.org/2000/svg">
<g clip-path="url(#clip0_6_115)">
<rect width="1920" height="1080" fill="white"/>
<rect width="1920" height="1080" fill="url(#paint0_linear_6_115)"/>
<rect x="-194" y="-196" width="281.786" height="1080.05" fill="url(#paint1_linear_6_115)"/>
<g filter="url(#filter0_d_6_115)">
<path d="M79.12 740.711C323.007 854.371 718.443 854.371 962.359 740.711C1206.28 627.051 1206.25 442.784 962.359 329.124C718.472 215.464 323.007 215.438 79.0909 329.124C-164.825 442.81 -164.796 627.051 79.12 740.711Z" fill="#FAFAFA"/>
</g>
<path d="M724.818 761.589C774.127 761.589 814.1 744.591 814.1 723.624C814.1 702.657 774.127 685.659 724.818 685.659C675.509 685.659 635.537 702.657 635.537 723.624C635.537 744.591 675.509 761.589 724.818 761.589Z" fill="#F0F0F0"/>
<path d="M1112.61 274.1H1452.84C1458.6 274.1 1461.48 274.1 1463.86 274.69C1471.05 276.475 1476.66 282.089 1478.45 289.278C1479.04 291.653 1479.04 294.535 1479.04 300.3V354.78H1286.33H1112.61V274.1Z" fill="#D0BADA"/>
<path d="M26.663 67.1109V197.728C26.663 202.013 30.0398 203.778 34.2317 201.623L374.183 26.5235C376.383 25.2411 378.214 23.5154 379.529 21.4856C380.844 19.4558 381.605 17.1787 381.752 14.8381V-115.883C381.752 -120.167 378.346 -121.933 374.183 -119.778L34.2317 55.3216C32.0116 56.6096 30.1671 58.3506 28.851 60.4007C27.5348 62.4508 26.7848 64.7509 26.663 67.1109V67.1109Z" fill="#F0F0F0"/>
<path d="M50.3297 65.0596L152.216 12.605C156.903 10.19 160.658 12.1376 160.658 16.9416V108.27C160.498 110.874 159.65 113.408 158.183 115.665C156.716 117.921 154.671 119.836 152.216 121.253L50.3297 173.734C45.6721 176.123 41.8877 174.175 41.8877 169.371V78.0953C42.0454 75.4831 42.8922 72.941 44.3591 70.6758C45.8261 68.4107 47.8718 66.4864 50.3297 65.0596V65.0596Z" fill="#FAFAFA"/>
<path d="M132.829 58.1781L102.525 114.216L87.0962 106.27C85.6147 105.547 83.8767 105.365 82.2479 105.762C80.619 106.16 79.2264 107.105 78.3631 108.399L41.8877 164.515V169.423C41.8877 174.227 45.6721 176.175 50.3297 173.786L152.216 121.305C154.667 119.884 156.707 117.968 158.174 115.712C159.641 113.456 160.492 110.925 160.658 108.321V76.1996L140.281 57.1394C139.826 56.5717 139.203 56.128 138.482 55.8578C137.76 55.5877 136.969 55.5016 136.196 55.6093C135.423 55.7171 134.699 56.0144 134.104 56.4679C133.51 56.9215 133.068 57.5136 132.829 58.1781V58.1781Z" fill="#BA68C8"/>
<path d="M57.1998 98.4797C63.4952 94.8169 68.7343 89.8822 72.4922 84.0756C76.2501 78.2691 78.421 71.7542 78.8288 65.0594C78.8288 59.4245 76.7911 55.3475 73.4434 53.1663L50.3297 65.0594C47.8794 66.4811 45.8385 68.3972 44.3719 70.6528C42.9054 72.9083 42.0544 75.44 41.8877 78.0432V99.7781C45.8758 101.856 51.2321 101.544 57.1998 98.4797Z" fill="#BA68C8"/>
<path d="M198.677 -2.79391L351.768 -81.6575C355.262 -83.4493 358.085 -82.1769 358.085 -78.8011C357.932 -76.9094 357.279 -75.0767 356.182 -73.4522C355.084 -71.8278 353.572 -70.4575 351.768 -69.4528L198.677 9.38487C195.183 11.1766 192.36 9.90423 192.36 6.52844C192.518 4.6412 193.172 2.81375 194.27 1.19412C195.367 -0.425508 196.877 -1.79175 198.677 -2.79391Z" fill="#FAFAFA"/>
<path d="M198.677 24.1864L351.768 -54.6772C355.262 -56.469 358.085 -55.1966 358.085 -51.8208C357.932 -49.929 357.279 -48.0963 356.182 -46.4719C355.084 -44.8475 353.572 -43.4771 351.768 -42.4724L198.677 36.3652C195.183 38.157 192.36 36.8846 192.36 33.5348C192.513 31.643 193.166 29.8103 194.263 28.1859C195.361 26.5615 196.873 25.1912 198.677 24.1864V24.1864Z" fill="#FAFAFA"/>
<path d="M198.677 51.1668L351.768 -27.6709C355.262 -29.4627 358.085 -28.1903 358.085 -24.8404C357.932 -22.9487 357.279 -21.116 356.182 -19.4916C355.084 -17.8671 353.572 -16.4968 351.768 -15.4921L198.677 63.3456C195.183 65.1633 192.36 63.8909 192.36 60.5151C192.513 58.6234 193.166 56.7907 194.263 55.1662C195.361 53.5418 196.873 52.1715 198.677 51.1668Z" fill="#FAFAFA"/>
<path d="M198.677 78.1472L351.768 -0.690506C355.262 -2.48227 358.085 -1.20986 358.085 2.16593C357.927 4.05317 357.273 5.88064 356.175 7.50027C355.078 9.1199 353.568 10.4861 351.768 11.4883L198.677 90.4818C195.183 92.2735 192.36 91.0011 192.36 87.6253C192.491 85.711 193.133 83.8523 194.231 82.2038C195.33 80.5553 196.854 79.1645 198.677 78.1472V78.1472Z" fill="#FAFAFA"/>
<path d="M-44.3665 478.074V286.407C-44.2266 284.065 -43.468 281.786 -42.1527 279.755C-40.8373 277.724 -39.0025 276 -36.7977 274.722L220.306 142.287C224.468 140.132 227.874 141.872 227.874 146.182V337.849C227.728 340.19 226.966 342.467 225.651 344.497C224.337 346.526 222.505 348.252 220.306 349.535L-36.7977 481.969C-40.9896 484.125 -44.3665 482.385 -44.3665 478.074Z" fill="#F0F0F0"/>
<path d="M-44.3665 468.492V478.074C-44.3665 482.385 -40.9896 484.125 -36.7977 481.969L220.306 349.535C222.505 348.252 224.337 346.526 225.651 344.497C226.966 342.467 227.728 340.19 227.874 337.849V328.241L-44.3665 468.492Z" fill="#BA68C8"/>
<path d="M80.0224 294.665L106.222 293.445C109.424 293.289 110.297 294.899 108.172 297.08L78.072 327.618C75.9469 329.773 74.2294 329.176 74.2294 326.32V300.144C74.2408 298.747 74.8444 297.406 75.919 296.389C76.9936 295.373 78.4596 294.757 80.0224 294.665Z" fill="#BA68C8"/>
<path d="M73.2687 344.367C70.1291 344.404 67.035 343.696 64.3027 342.316C57.8402 338.966 54.2887 331.929 54.2887 322.736C54.2887 303.987 69.1059 281.188 87.329 271.71C96.3241 267.061 104.795 266.36 111.316 269.684C117.837 273.008 121.359 280.071 121.359 289.238C121.359 308.012 106.513 330.786 88.3188 340.264C83.7901 342.781 78.6011 344.196 73.2687 344.367V344.367ZM102.379 269.399C97.4037 269.574 92.5663 270.908 88.3479 273.268C70.6779 282.356 56.3264 304.559 56.3264 322.736C56.3264 331.357 59.5286 337.771 65.3507 340.758C71.1728 343.744 78.9743 343.043 87.329 338.732C104.999 329.617 119.35 307.571 119.35 289.238C119.35 280.617 116.148 274.229 110.326 271.216C107.891 270.001 105.141 269.374 102.35 269.399H102.379Z" fill="#BA68C8"/>
<path d="M267.639 465.272C267.639 465.272 278.148 405.547 254.801 354.183C231.455 302.819 199.986 299.651 183.685 306.948C167.383 314.245 177.863 342.731 192.418 361.869C211.805 386.98 243.827 441.045 242.779 489.604L267.639 465.272Z" fill="#BA68C8"/>
<path opacity="0.2" d="M267.639 465.272C267.639 465.272 278.148 405.547 254.801 354.183C231.455 302.819 199.986 299.651 183.685 306.948C167.383 314.245 177.863 342.731 192.418 361.869C211.805 386.98 243.827 441.045 242.779 489.604L267.639 465.272Z" fill="black"/>
<path d="M257.159 469.064C256.898 469.057 256.641 469.004 256.403 468.907C256.165 468.81 255.952 468.671 255.775 468.499C255.599 468.327 255.463 468.126 255.376 467.906C255.288 467.686 255.251 467.453 255.267 467.22C259.11 385.448 213.319 324.398 193.553 312.505C193.337 312.375 193.152 312.209 193.008 312.016C192.864 311.822 192.764 311.605 192.714 311.377C192.664 311.15 192.665 310.915 192.716 310.688C192.768 310.46 192.869 310.244 193.015 310.051C193.16 309.858 193.346 309.693 193.563 309.565C193.78 309.436 194.023 309.347 194.278 309.303C194.534 309.258 194.797 309.259 195.052 309.305C195.307 309.351 195.549 309.441 195.765 309.571C219.054 323.437 263.069 385.863 259.197 467.376C259.19 467.607 259.131 467.834 259.024 468.044C258.917 468.254 258.764 468.443 258.575 468.601C258.385 468.758 258.162 468.879 257.919 468.959C257.676 469.039 257.418 469.074 257.159 469.064Z" fill="white"/>
<path d="M263.505 536.19C259.517 527.257 249.212 517.285 222.751 506.639C196.289 495.992 176.378 481.788 172.71 471.504C171.606 468.664 171.462 465.597 172.295 462.684C173.128 459.771 174.902 457.14 177.397 455.119C177.397 455.119 152.449 452.522 149.305 438.889C145.375 421.699 167.179 420.582 167.179 420.582C167.179 420.582 138.563 384.643 130.966 368.647C123.368 352.651 132.13 351.69 150.586 357.792C169.042 363.895 204.207 394.614 209.651 403.989C209.651 403.989 219.17 393.602 229.417 400.431C239.664 407.261 240.159 427.697 234.104 435.072C238.187 434.393 242.403 434.785 246.242 436.2C250.081 437.615 253.377 439.992 255.733 443.044C266.154 455.223 269.589 485.683 269.589 485.683L263.505 536.19Z" fill="#BA68C8"/>
<path d="M265.368 527.88C264.926 527.875 264.498 527.74 264.151 527.496C263.803 527.252 263.556 526.912 263.447 526.53C249.3 473.946 182.142 390.018 140.427 363.324C140.214 363.189 140.034 363.018 139.896 362.821C139.758 362.624 139.664 362.405 139.621 362.176C139.578 361.947 139.585 361.713 139.644 361.486C139.702 361.26 139.81 361.046 139.961 360.857C140.112 360.667 140.303 360.506 140.524 360.383C140.744 360.26 140.99 360.177 141.247 360.138C141.504 360.099 141.767 360.106 142.02 360.158C142.274 360.21 142.514 360.306 142.726 360.441C184.965 387.473 252.967 472.465 267.319 525.699C267.433 526.157 267.341 526.636 267.064 527.034C266.786 527.432 266.345 527.717 265.834 527.828L265.368 527.88Z" fill="white"/>
<path d="M263.505 152.337V538.683C263.505 542.993 266.882 544.733 271.045 542.578L776.227 282.408C778.427 281.126 780.259 279.4 781.573 277.37C782.888 275.34 783.649 273.063 783.796 270.723V-115.623C783.796 -119.934 780.39 -121.674 776.227 -119.518L271.045 140.651C268.847 141.933 267.019 143.66 265.709 145.69C264.399 147.72 263.644 149.997 263.505 152.337V152.337Z" fill="#455A64"/>
<path d="M322.629 223.696C322.629 237.173 333.894 242.262 347.838 235.095L748.311 28.8346V-19.8806L347.838 186.354C333.894 193.547 322.629 210.244 322.629 223.696Z" fill="#F5F5F5"/>
<path d="M782.37 -37.3568C796.285 -44.5239 807.579 -39.4342 807.579 -25.983C807.579 -12.5318 796.285 4.19134 782.37 11.3584L748.456 28.8346V-19.8806L782.37 -37.3568Z" fill="#BA68C8"/>
<path d="M770.143 3.69794C768.693 3.71628 767.265 3.38427 766.01 2.73713C764.463 1.81373 763.225 0.534924 762.426 -0.96425C761.626 -2.46342 761.296 -4.12733 761.468 -5.78024C761.678 -9.84464 762.977 -13.805 765.256 -17.3293C767.535 -20.8535 770.729 -23.8389 774.568 -26.035C776.034 -27.1016 777.829 -27.7447 779.715 -27.8789C781.601 -28.0132 783.488 -27.6321 785.125 -26.7864C786.762 -25.9407 788.071 -24.6704 788.879 -23.1446C789.687 -21.6188 789.955 -19.9097 789.647 -18.2447C789.431 -14.1818 788.129 -10.2238 785.85 -6.70055C783.572 -3.17732 780.382 -0.190854 776.548 2.01004C774.616 3.0634 772.407 3.64546 770.143 3.69794V3.69794ZM780.943 -24.2172C779.382 -24.1484 777.867 -23.7189 776.548 -22.9708C773.332 -21.0654 770.655 -18.5219 768.726 -15.5395C766.797 -12.5572 765.668 -9.21686 765.427 -5.78024C765.127 -4.74609 765.215 -3.65264 765.679 -2.66754C766.142 -1.68244 766.955 -0.86007 767.992 -0.32657C769.03 0.20693 770.235 0.422118 771.423 0.286008C772.61 0.149899 773.715 -0.330009 774.568 -1.08011C777.787 -2.98254 780.466 -5.52532 782.396 -8.50831C784.325 -11.4913 785.452 -14.8331 785.688 -18.2707C785.838 -19.3003 785.679 -20.3469 785.229 -21.3045C784.78 -22.2621 784.054 -23.0967 783.127 -23.7239C782.463 -24.0629 781.708 -24.2335 780.943 -24.2172V-24.2172Z" fill="white"/>
<path d="M788.192 69.2662L401.023 268.542C398.815 269.816 396.978 271.54 395.662 273.572C394.346 275.603 393.59 277.884 393.454 280.227V386.512C393.454 390.823 396.831 392.563 401.023 390.408L788.192 191.054C790.397 189.776 792.231 188.052 793.547 186.021C794.862 183.99 795.621 181.711 795.761 179.369V73.1614C795.615 68.8508 792.238 67.1109 788.192 69.2662Z" fill="#BA68C8"/>
<path opacity="0.2" d="M788.192 69.2662L401.023 268.542C398.815 269.816 396.978 271.54 395.662 273.572C394.346 275.603 393.59 277.884 393.454 280.227V386.512C393.454 390.823 396.831 392.563 401.023 390.408L788.192 191.054C790.397 189.776 792.231 188.052 793.547 186.021C794.862 183.99 795.621 181.711 795.761 179.369V73.1614C795.615 68.8508 792.238 67.1109 788.192 69.2662Z" fill="white"/>
<path d="M541.772 213.776L611.928 177.629C615.421 175.837 618.245 177.11 618.245 180.485C618.087 182.373 617.433 184.2 616.335 185.82C615.238 187.439 613.728 188.806 611.928 189.808L541.772 225.955C538.279 227.746 535.455 226.474 535.455 223.098C535.613 221.211 536.268 219.384 537.365 217.764C538.463 216.144 539.972 214.778 541.772 213.776V213.776Z" fill="white"/>
<path d="M535.455 247.456C535.455 250.832 538.366 252.104 541.772 250.312L753.842 141.093C755.638 140.083 757.143 138.711 758.235 137.087C759.328 135.463 759.976 133.633 760.129 131.744C760.129 128.394 757.218 127.122 753.842 128.914L541.772 238.133C539.972 239.136 538.463 240.502 537.365 242.121C536.268 243.741 535.613 245.569 535.455 247.456Z" fill="white"/>
<path d="M535.455 271.813C535.455 275.189 538.366 276.462 541.772 274.67L753.842 165.45C755.638 164.441 757.143 163.069 758.235 161.445C759.328 159.821 759.976 157.991 760.129 156.102C760.129 152.752 757.218 151.48 753.842 153.271L541.772 262.491C539.972 263.493 538.463 264.859 537.365 266.479C536.268 268.099 535.613 269.926 535.455 271.813Z" fill="white"/>
<path d="M535.455 296.171C535.455 299.547 538.366 300.819 541.772 299.027L753.842 189.808C755.638 188.798 757.143 187.426 758.235 185.803C759.328 184.179 759.976 182.348 760.129 180.459C760.129 177.109 757.218 175.837 753.842 177.629L541.772 286.849C539.972 287.851 538.463 289.217 537.365 290.837C536.268 292.456 535.613 294.284 535.455 296.171V296.171Z" fill="white"/>
<path d="M412.958 274.618L504.249 227.591C508.441 225.461 511.817 227.201 511.817 231.486V313.362C511.675 315.703 510.916 317.982 509.601 320.012C508.285 322.043 506.452 323.768 504.249 325.047L412.958 372.048C408.796 374.204 405.39 372.464 405.39 368.179V286.303C405.53 283.961 406.288 281.682 407.603 279.651C408.919 277.62 410.754 275.896 412.958 274.618V274.618Z" fill="white"/>
<path d="M486.899 268.464L459.739 318.685L445.911 311.57C444.575 310.882 442.988 310.696 441.498 311.051C440.008 311.407 438.737 312.275 437.964 313.466L405.39 363.765V368.153C405.39 372.464 408.796 374.204 412.958 372.048L504.249 325.047C506.453 323.769 508.288 322.045 509.604 320.014C510.919 317.983 511.677 315.704 511.817 313.362V284.616L493.449 267.529C493.033 267.052 492.48 266.683 491.85 266.461C491.219 266.239 490.533 266.173 489.864 266.268C489.194 266.364 488.566 266.618 488.045 267.004C487.523 267.39 487.127 267.894 486.899 268.464V268.464Z" fill="#BA68C8"/>
<path d="M419.101 304.585C424.745 301.3 429.441 296.875 432.81 291.669C436.178 286.462 438.124 280.621 438.488 274.618C438.682 272.625 438.345 270.62 437.506 268.765C436.666 266.911 435.347 265.259 433.656 263.945L412.958 274.618C410.754 275.896 408.919 277.621 407.603 279.651C406.288 281.682 405.53 283.962 405.39 286.304V305.779C408.912 307.597 413.744 307.337 419.101 304.585Z" fill="#BA68C8"/>
<path d="M788.192 227.591L401.023 426.866C398.818 428.144 396.983 429.869 395.668 431.899C394.353 433.93 393.594 436.21 393.454 438.552V544.915C393.454 549.2 396.831 550.939 401.023 548.81L788.192 349.405C790.397 348.127 792.231 346.402 793.547 344.372C794.862 342.341 795.621 340.061 795.761 337.719V231.486C795.615 227.201 792.238 225.513 788.192 227.591Z" fill="#BA68C8"/>
<path opacity="0.2" d="M788.192 227.591L401.023 426.866C398.818 428.144 396.983 429.869 395.668 431.899C394.353 433.93 393.594 436.21 393.454 438.552V544.915C393.454 549.2 396.831 550.939 401.023 548.81L788.192 349.405C790.397 348.127 792.231 346.402 793.547 344.372C794.862 342.341 795.621 340.061 795.761 337.719V231.486C795.615 227.201 792.238 225.513 788.192 227.591Z" fill="white"/>
<path d="M541.772 372.1L611.928 335.979C615.421 334.188 618.245 335.46 618.245 338.81C618.091 340.702 617.439 342.534 616.341 344.159C615.244 345.783 613.732 347.154 611.928 348.158L541.772 384.279C538.279 386.071 535.455 384.799 535.455 381.449C535.609 379.557 536.261 377.724 537.359 376.1C538.456 374.475 539.969 373.105 541.772 372.1Z" fill="white"/>
<path d="M535.455 405.806C535.455 409.156 538.366 410.428 541.772 408.637L753.842 299.417C755.634 298.41 757.137 297.042 758.229 295.423C759.321 293.804 759.972 291.979 760.129 290.095C760.129 286.719 757.218 285.446 753.842 287.238L541.772 396.458C539.969 397.463 538.456 398.833 537.359 400.457C536.261 402.082 535.609 403.914 535.455 405.806Z" fill="white"/>
<path d="M535.455 430.164C535.455 433.514 538.366 434.786 541.772 432.994L753.842 323.775C755.634 322.768 757.137 321.4 758.229 319.781C759.321 318.162 759.972 316.337 760.129 314.452C760.129 311.076 757.218 309.804 753.842 311.596L541.772 420.816C539.969 421.82 538.456 423.191 537.359 424.815C536.261 426.44 535.609 428.272 535.455 430.164Z" fill="white"/>
<path d="M535.455 454.522C535.455 457.872 538.366 459.144 541.772 457.352L753.842 348.132C755.634 347.126 757.137 345.758 758.229 344.139C759.321 342.52 759.972 340.694 760.129 338.81C760.129 335.434 757.218 334.162 753.842 335.954L541.772 445.173C539.969 446.178 538.456 447.548 537.359 449.173C536.261 450.797 535.609 452.63 535.455 454.522Z" fill="white"/>
<path d="M412.958 432.968L504.249 385.941C508.441 383.786 511.817 385.525 511.817 389.836V471.686C511.682 474.029 510.926 476.31 509.61 478.341C508.294 480.373 506.457 482.097 504.249 483.371L412.958 530.399C408.796 532.554 405.39 530.814 405.39 526.504V444.654C405.53 442.312 406.288 440.032 407.603 438.002C408.919 435.971 410.754 434.246 412.958 432.968V432.968Z" fill="white"/>
<path d="M486.899 426.814L459.739 477.036L445.911 469.894C445.248 469.555 444.516 469.336 443.758 469.249C443 469.161 442.23 469.209 441.492 469.387C440.754 469.565 440.062 469.872 439.457 470.289C438.852 470.705 438.345 471.224 437.964 471.816L405.39 522.115V526.504C405.39 530.814 408.796 532.554 412.958 530.399L504.249 483.372C506.453 482.099 508.288 480.38 509.603 478.353C510.919 476.326 511.678 474.051 511.817 471.712V442.94L493.449 425.879C493.038 425.394 492.487 425.018 491.854 424.791C491.222 424.564 490.532 424.494 489.859 424.59C489.186 424.686 488.554 424.944 488.033 425.336C487.512 425.728 487.119 426.239 486.899 426.814V426.814Z" fill="#BA68C8"/>
<path d="M419.101 462.909C424.744 459.63 429.441 455.21 432.81 450.008C436.178 444.805 438.124 438.968 438.488 432.969C438.682 430.976 438.345 428.97 437.506 427.116C436.666 425.261 435.347 423.61 433.656 422.296L412.958 432.969C410.754 434.246 408.919 435.971 407.603 438.002C406.288 440.032 405.53 442.312 405.39 444.654V464.13C408.912 465.921 413.744 465.662 419.101 462.909Z" fill="#BA68C8"/>
<path d="M783.796 -99.0818V-115.623C783.796 -119.934 780.39 -121.674 776.227 -119.518L271.074 140.651C268.869 141.929 267.035 143.654 265.719 145.684C264.404 147.715 263.645 149.995 263.505 152.337V168.904L783.796 -99.0818Z" fill="#BA68C8"/>
<path d="M791.86 706.485C792.74 708.481 793.346 710.565 793.665 712.691C794.485 714.891 794.675 717.239 794.218 719.521C792.256 722.435 789.139 724.585 785.485 725.545C782.884 726.08 780.187 726.125 777.566 725.678C774.944 725.23 772.456 724.301 770.26 722.949C764.933 720.118 760.945 716.665 753.376 714.769C747.978 713.732 742.894 711.668 738.471 708.718C734.279 705.732 728.69 697.423 736.696 695.501C744.701 693.579 762.138 700.357 778.003 700.98L791.86 706.485Z" fill="#263238"/>
<path d="M791.103 697.137C791.103 697.137 792.034 707.057 792.034 708.277C792.034 711.627 778.178 716.067 775.616 708.277L773.404 697.734L791.103 697.137Z" fill="#F28F8F"/>
<path d="M774.102 479.502C778.867 485.752 783.231 492.237 787.173 498.926C787.173 498.926 788.541 513.364 788.541 522.972C788.541 540.63 785.485 554.263 782.719 589.06C787.222 595.905 789.799 603.621 790.23 611.548C791.394 627.31 791.423 627.128 791.54 699.838C788.887 701.114 785.976 701.905 782.977 702.163C779.977 702.422 776.95 702.143 774.073 701.344L747.874 599.525L744.963 559.561L736.754 509.885L774.102 479.502Z" fill="#37474F"/>
<path d="M712.097 724.689C713.029 725.545 712.709 727.285 713.145 730.142C713.629 732.339 713.757 734.586 713.524 736.815C711.996 739.903 709.236 742.374 705.78 743.749C703.268 744.557 700.595 744.893 697.93 744.737C695.265 744.581 692.666 743.935 690.294 742.84C684.646 740.607 680.192 737.646 672.42 736.582C666.919 736.159 661.586 734.68 656.787 732.245C652.217 729.648 645.493 722.118 653.178 719.261C660.863 716.405 680.134 721.52 695.941 720.378L712.097 724.689Z" fill="#263238"/>
<path d="M715.736 712.224C715.736 712.224 712.825 723.546 712.039 726.065C710.292 732.115 695.242 732.427 695.242 725.442L696.261 709.342L715.736 712.224Z" fill="#F28F8F"/>
<path d="M740.131 482.593C747.67 495.81 754.948 507.469 755.181 521.544C755.734 551.329 741.877 584.126 736.783 605.653C738.301 613.444 738.731 621.372 738.064 629.258C737.045 638.268 714.018 720.144 714.018 720.144C714.018 720.144 701.21 722.533 695.766 717.366L702.229 559.716L703.975 513.935L740.131 482.593Z" fill="#37474F"/>
<path d="M729.767 401.859L734.512 425.308L758.266 423.75L753.289 397.185L729.767 401.859Z" fill="#FFA8A7"/>
<path d="M783.33 422.036C780.972 415.674 771.919 408.741 762.953 410.247C749.486 412.289 736.212 415.24 723.247 419.076C714.95 421.672 707.381 428.138 706.683 452.496L704.092 513.78C707.679 516.625 711.983 518.656 716.638 519.7C729.243 522.79 737.569 524.634 756.724 520.895C781.671 516.039 787.61 502.562 787.61 502.562C787.61 502.562 786.649 470.128 785.892 452.496C785.281 437.513 784.931 426.424 783.33 422.036Z" fill="#455A64"/>
<path d="M719.637 371.919L598.683 342.653C587.737 340.965 583.167 364.803 594.112 366.465L718.327 377.657L719.637 371.919Z" fill="#263238"/>
<path d="M684.85 421.361L660.135 422.036C660.135 422.036 663.861 389.239 666.161 384.928C668.461 380.618 673.963 379.735 679.435 378.358C684.908 376.982 684.879 374.645 684.879 374.645L679.959 374.204C675.651 373.814 673.933 369.01 675.797 365.764C676.699 364.258 678.154 361.869 680.774 362.518L687.295 364.102C687.396 361.536 686.679 358.997 685.228 356.779C683.045 354.624 681.59 355.299 677.223 353.949C673.992 352.936 667.384 351.144 662.056 353.092C656.729 355.04 652.683 363.972 651.315 370.283C649.93 377.579 647.686 384.725 644.619 391.602C639.874 403.287 632.975 427.281 632.247 436.889C631.927 441.33 632.393 443.979 637.924 445.147C643.455 446.316 684.151 446.394 684.151 446.394L684.85 421.361Z" fill="#FFA8A7"/>
<path d="M712.185 374.1C712.185 374.1 706.362 381.682 707.178 382.513C708.492 383.296 709.95 383.867 711.486 384.201L712.185 374.1Z" fill="#FFA8A7"/>
<path d="M729.738 350.158C724.207 352.755 714.659 357.247 712.01 375.32C709.303 393.861 712.883 399.834 715.678 402.301C717.599 403.963 727.904 404.067 733.144 402.664C739.607 400.95 754.191 395.991 760.857 386.46C768.688 375.242 770.434 360.233 761.614 354.261C757.126 351.224 751.846 349.254 746.27 348.536C740.694 347.818 735.006 348.376 729.738 350.158V350.158Z" fill="#FFA8A7"/>
<path d="M746.011 573.921L758.616 542.136C768.386 539.047 777.14 533.835 784.087 526.971C784.087 526.971 781.176 536.034 761.265 545.33L747.437 575.401V592.124L746.011 573.921Z" fill="#263238"/>
<path d="M710.875 356.26C712.679 360.701 715.736 371.607 728.486 376.151C728.486 376.151 730.32 369.218 736.841 369.945C743.362 370.672 744.497 378.125 740.48 382.747C736.463 387.369 732.562 385.707 732.562 385.707C732.562 385.707 731.689 395.653 739.141 400.171C741.915 401.631 745.031 402.496 748.244 402.698C751.456 402.901 754.678 402.436 757.655 401.34C761.934 399.6 768.018 390.433 771.57 382.903C779.08 367.011 780.157 354.338 768.659 350.236C767.232 343.017 763.594 340.29 756.258 338.94C740.48 336.057 728.545 345.302 715.299 343.666C708.517 342.809 708.779 351.17 710.875 356.26Z" fill="#263238"/>
<path d="M769.037 352.754L776.49 348.626C775.84 347.816 774.87 347.257 773.775 347.062C772.68 346.867 771.543 347.051 770.595 347.576C769.647 348.101 768.958 348.929 768.669 349.891C768.38 350.852 768.511 351.876 769.037 352.754V352.754Z" fill="#263238"/>
<path d="M679.319 420.92C679.319 420.92 714.106 419.128 722.985 419.076C731.863 419.024 741.295 432.553 735.764 441.771C732.096 447.822 720.656 449.899 706.246 450.523C691.836 451.146 677.31 451.146 677.31 451.146C677.31 451.146 664.356 437.98 679.319 420.92Z" fill="#455A64"/>
<path d="M706.683 450.523C706.683 450.523 728.719 450.263 735.939 441.771C735.939 441.771 734.25 446.965 725.692 450.159C719.558 452.262 713.097 453.506 706.537 453.846L706.683 450.523Z" fill="#37474F"/>
<path d="M598.683 342.653C587.737 340.965 583.167 364.803 594.112 366.465L611.579 368.023C604.476 367.374 609.396 345.224 614.81 346.522L598.683 342.653Z" fill="#455A64"/>
<path d="M1039.18 336.291C1039.18 341.125 1037.55 345.847 1034.5 349.842C1031.45 353.836 1027.12 356.918 1022.08 358.684C1017.03 360.45 1011.51 360.819 1006.22 359.743C1000.94 358.667 996.144 356.195 992.46 352.651L990.684 350.729C986.541 345.8 984.676 339.64 985.476 333.521C986.275 327.401 989.677 321.789 994.979 317.842C1000.28 313.894 1007.08 311.913 1013.97 312.307C1020.87 312.7 1027.33 315.439 1032.02 319.958L1033.85 321.931C1037.31 326.084 1039.18 331.119 1039.18 336.291V336.291Z" fill="#455A64"/>
<path d="M1039.18 336.291C1039.18 341.125 1037.55 345.847 1034.5 349.842C1031.45 353.836 1027.12 356.918 1022.08 358.684C1017.03 360.45 1011.51 360.819 1006.22 359.743C1000.94 358.667 996.144 356.195 992.46 352.651L990.684 350.729L878.434 229.798L925.739 205.44L1032.02 319.906L1033.85 321.879C1037.32 326.046 1039.19 331.101 1039.18 336.291V336.291Z" fill="#455A64"/>
<path d="M946.32 302.923C951.034 307.333 957.449 309.983 964.269 310.335C971.09 310.688 977.805 308.718 983.059 304.822C988.313 300.927 991.713 295.398 992.572 289.352C993.431 283.307 991.684 277.196 987.686 272.255V272.255L973.8 257.323C977.95 262.255 979.818 268.42 979.017 274.545C978.217 280.67 974.809 286.287 969.498 290.234C964.187 294.181 957.379 296.158 950.481 295.755C943.583 295.352 937.123 292.6 932.434 288.069L946.32 302.923Z" fill="#BA68C8"/>
<path d="M923.934 15.3315C932.408 16.1727 940.601 18.5498 948.008 22.3168L913.862 4.60686C890.952 -9.44161 857.97 -8.61065 821.32 10.2418C752.124 45.8954 695.999 132.601 695.999 203.908C695.999 238.939 709.361 263.971 731.397 275.864L731.863 276.124L768.309 294.847C761.846 291.096 756.212 286.316 751.687 280.746C760.667 281.623 769.748 281.158 778.556 279.37C781.758 278.747 784.99 277.994 788.279 277.059C787.849 276.943 787.43 276.796 787.027 276.618C785.276 275.886 783.6 275.017 782.02 274.021C779.155 272.239 776.604 270.086 774.452 267.633C771.509 264.273 769.118 260.557 767.349 256.597C764.977 256.902 762.584 257.059 760.188 257.064C754.522 257.165 748.899 256.164 743.711 254.13C742.498 253.634 741.322 253.07 740.189 252.442C739.17 251.87 738.151 251.195 737.278 250.52C735.172 241.73 734.147 232.762 734.221 223.773C734.221 152.492 790.346 65.7606 859.6 30.1071C868.442 25.5059 877.81 21.7626 887.546 18.941C890.169 19.8971 892.637 21.1635 894.882 22.7063C897.259 24.3331 899.4 26.2172 901.257 28.3153C904.209 31.6831 906.61 35.4077 908.389 39.3775C910.771 39.0799 913.174 38.9323 915.579 38.936C922.161 38.7784 928.671 40.1855 934.443 43.013C935.903 43.7229 937.296 44.5394 938.605 45.4539C938.081 43.3765 937.528 41.3251 936.859 39.3775C934.229 30.7265 929.849 22.5772 923.934 15.3315V15.3315Z" fill="#263238"/>
<path d="M948.008 22.3168L946.029 21.356C939.147 18.141 931.654 16.098 923.934 15.3315C915.648 14.5073 907.269 14.849 899.103 16.3442C895.168 17.0093 891.281 17.8764 887.458 18.941C877.723 21.7626 868.354 25.506 859.512 30.1071C790.259 65.7606 734.134 152.492 734.134 223.773C734.06 232.762 735.085 241.73 737.19 250.52C737.569 252.104 738.005 253.61 738.442 255.116C741.036 264.308 745.539 272.983 751.716 280.694C754.475 284.088 757.648 287.197 761.177 289.965C763.428 291.73 765.821 293.344 768.339 294.795C791.19 307.96 823.648 306.818 859.454 288.329C928.708 252.675 984.833 165.97 984.833 94.6625C984.804 59.009 970.743 33.9503 948.008 22.3168ZM934.326 43.0909C935.787 43.8008 937.179 44.6173 938.489 45.5318C940.684 47.1222 942.685 48.9153 944.457 50.8812C953.19 60.645 957.818 75.836 957.818 94.7404C957.818 157.063 906.584 236.316 845.947 267.555C830.664 275.345 815.963 279.604 803.475 279.604C798.265 279.658 793.097 278.775 788.279 277.007C787.849 276.892 787.43 276.744 787.027 276.566C785.276 275.834 783.6 274.965 782.02 273.969C780.056 272.739 778.241 271.329 776.606 269.762V269.762C775.878 269.087 775.18 268.334 774.481 267.581C771.538 264.221 769.147 260.505 767.378 256.545C762.943 246.065 760.828 234.919 761.148 223.722C761.148 222.891 761.148 222.086 761.148 221.125C762.429 159.062 813.11 81.6008 872.961 50.8033C874.33 50.1021 875.727 49.401 877.124 48.7518C886.776 43.9425 897.315 40.7148 908.243 39.2217C910.625 38.9241 913.028 38.7766 915.434 38.7802C920.613 38.7404 925.75 39.6232 930.542 41.377C931.855 41.8423 933.121 42.4071 934.326 43.0649V43.0909Z" fill="#455A64"/>
<path opacity="0.6" d="M946.116 87.5214C946.116 149.844 894.882 229.097 834.245 260.336C818.962 268.126 804.29 272.385 791.773 272.385C786.573 272.439 781.414 271.556 776.606 269.788V269.788C775.878 269.113 775.18 268.36 774.481 267.607C771.539 264.247 769.147 260.531 767.378 256.571C762.944 246.091 760.828 234.945 761.148 223.748C761.148 222.917 761.148 222.112 761.148 221.151C762.429 159.088 813.11 81.6268 872.961 50.8292C874.33 50.1281 875.727 49.427 877.124 48.7778C886.776 43.9685 897.315 40.7408 908.243 39.2477C910.625 38.95 913.028 38.8025 915.434 38.8062C920.613 38.7664 925.75 39.6492 930.542 41.403C931.328 42.1041 932.056 42.8571 932.754 43.6102C941.487 53.426 946.116 68.617 946.116 87.5214Z" fill="white"/>
</g>
<defs>
<filter id="filter0_d_6_115" x="-103.832" y="243.869" width="1271.12" height="590.087" filterUnits="userSpaceOnUse" color-interpolation-filters="sRGB">
<feFlood flood-opacity="0" result="BackgroundImageFix"/>
<feColorMatrix in="SourceAlpha" type="matrix" values="0 0 0 0 0 0 0 0 0 0 0 0 0 0 0 0 0 0 127 0" result="hardAlpha"/>
<feOffset dx="18" dy="4"/>
<feGaussianBlur stdDeviation="2"/>
<feComposite in2="hardAlpha" operator="out"/>
<feColorMatrix type="matrix" values="0 0 0 0 0 0 0 0 0 0 0 0 0 0 0 0 0 0 0.25 0"/>
<feBlend mode="normal" in2="BackgroundImageFix" result="effect1_dropShadow_6_115"/>
<feBlend mode="normal" in="SourceGraphic" in2="effect1_dropShadow_6_115" result="shape"/>
</filter>
<linearGradient id="paint0_linear_6_115" x1="24.5" y1="86" x2="2009" y2="1026" gradientUnits="userSpaceOnUse">
<stop stop-color="#B7A8C4"/>
<stop offset="1" stop-color="#E4E0E0" stop-opacity="0"/>
</linearGradient>
<linearGradient id="paint1_linear_6_115" x1="-53.1071" y1="-196" x2="-53.1071" y2="884.046" gradientUnits="userSpaceOnUse">
<stop stop-color="#756487"/>
<stop offset="1" stop-color="#896D6D" stop-opacity="0"/>
</linearGradient>
<clipPath id="clip0_6_115">
<rect width="1920" height="1080" fill="white"/>
</clipPath>
</defs>
</svg>
